<svg xmlns="http://www.w3.org/2000/svg" style="width:0; height:0; visibility:hidden;">
    <symbol id="icon-arrow-top-small" viewBox="0 0 20 52">
      <path fill-rule="evenodd" clip-rule="evenodd" fill="#FFF" d="M18.6 11L11 3.7V52H9V3.7L1.4 11 0 9.6 10 0l10 9.6-1.4 1.4z"/>
    </symbol>
    <symbol id="icon-arrow-top" viewBox="0 0 19.986 71.993">
      <path fill-rule="evenodd" clip-rule="evenodd" d="M18.559 11.001l-7.565-7.287v68.279h-2V3.714l-7.565 7.287L0 9.626 9.993 0l9.993 9.626-1.427 1.375z"/>
    </symbol>
    <symbol id="icon-check" viewBox="0 0 26 20">
      <path d="M26 2.9L11.6 17.2 8.7 20 0 11.4l2.9-2.9 5.8 5.7L23.1 0 26 2.9z"/>
    </symbol>
    <symbol id="icon-close" viewBox="0 0 18 18">
      <path fill-rule="evenodd" clip-rule="evenodd" d="M18 16.6L16.6 18 9 10.4 1.4 18 0 16.6 7.6 9 0 1.4 1.4 0 9 7.6 16.6 0 18 1.4 10.4 9l7.6 7.6z"/>
    </symbol>
    <symbol id="icon-facebook" viewBox="0 0 8 16">
      <path d="M0 5.001h2v-2C2 1.655 2.324 0 5 0h3v2H6c-1.512 0-2 .638-2 2v1.001h3L6 7H4v9H2V7H0V5.001z"/>
    </symbol>
    <symbol id="icon-google-plus" viewBox="0 0 22 13.997">
      <path fill-rule="evenodd" clip-rule="evenodd" d="M7 5.999v2.4h3.97c-.16 1.029-1.2 3.02-3.97 3.02-2.39 0-4.34-1.98-4.34-4.419 0-2.44 1.95-4.42 4.34-4.42 1.36 0 2.27.58 2.79 1.08l1.899-1.83C10.47.689 8.89 0 7 0 3.13 0 0 3.129 0 6.999a6.994 6.994 0 0 0 7 6.998c4.04 0 6.72-2.838 6.72-6.838 0-.459-.05-.81-.109-1.159H7zm13 0v-2h-2v2h-2v2h2v2h2v-2h2v-2h-2z"/>
    </symbol>
    <symbol id="icon-twitter" viewBox="0 0 16.975 13.973">
      <path d="M16.975 1.654a6.903 6.903 0 0 1-2 .557A3.53 3.53 0 0 0 16.506.259a6.9 6.9 0 0 1-2.213.856A3.452 3.452 0 0 0 11.752 0C9.829 0 8.271 1.58 8.271 3.528c0 .276.029.544.089.802C5.466 4.184 2.9 2.779 1.182.646A3.548 3.548 0 0 0 .71 2.421c0 1.222.615 2.302 1.55 2.936a3.51 3.51 0 0 1-1.578-.44v.043c0 1.708 1.2 3.135 2.794 3.457-.292.083-.6.124-.918.124a3.35 3.35 0 0 1-.654-.063c.442 1.4 1.729 2.42 3.252 2.447a6.912 6.912 0 0 1-5.155 1.463 9.79 9.79 0 0 0 5.338 1.584c6.407 0 9.908-5.375 9.908-10.035 0-.153-.003-.307-.009-.456a7.155 7.155 0 0 0 1.737-1.827"/>
    </symbol></svg>