<?xml version="1.0" encoding="utf-8"?>
<!-- Generator: Adobe Illustrator 16.0.0, SVG Export Plug-In . SVG Version: 6.00 Build 0)  -->
<!DOCTYPE svg PUBLIC "-//W3C//DTD SVG 1.1//EN" "http://www.w3.org/Graphics/SVG/1.1/DTD/svg11.dtd">
<svg version="1.1" id="Layer_1" xmlns="http://www.w3.org/2000/svg" xmlns:xlink="http://www.w3.org/1999/xlink" x="0px" y="0px"
	 width="160px" height="160px" viewBox="-55 -47 160 160" enable-background="new -55 -47 160 160" xml:space="preserve">
<path fill="#FFFFFF" d="M0,66V0h50v66H0z M20,64h10V52H20V64z M48,2H2v62h16V50h14v14h16V2z M29,30h10v10H29V30z M31,38h6v-6h-6V38z
	 M29,11h10v10H29V11z M31,19h6v-6h-6V19z M11,30h10v10H11V30z M13,38h6v-6h-6V38z M11,11h10v10H11V11z M13,19h6v-6h-6V19z"/>
<path fill-rule="evenodd" clip-rule="evenodd" fill="#FFFFFF" d="M25,113c-44.2,0-80-35.8-80-80c0-44.2,35.8-80,80-80
	c44.2,0,80,35.8,80,80C105,77.2,69.2,113,25,113z M25-45c-43.1,0-78,34.9-78,78s34.9,78,78,78s78-34.9,78-78S68.1-45,25-45z"/>
</svg>
