<?xml version="1.0" encoding="utf-8"?>
<!-- Generator: Adobe Illustrator 16.0.0, SVG Export Plug-In . SVG Version: 6.00 Build 0)  -->
<!DOCTYPE svg PUBLIC "-//W3C//DTD SVG 1.1//EN" "http://www.w3.org/Graphics/SVG/1.1/DTD/svg11.dtd">
<svg version="1.1" id="Layer_1" xmlns="http://www.w3.org/2000/svg" xmlns:xlink="http://www.w3.org/1999/xlink" x="0px" y="0px"
	 width="160px" height="160px" viewBox="-58 -47 160 160" enable-background="new -58 -47 160 160" xml:space="preserve">
<path fill="#FFFFFF" d="M0,66V54v-2V10V8V0h44v8v2v42v2v12H0z M42,2H2v6h40V2z M42,10H2v42h40V10z M42,54H2v10h40V54z M22,57
	c1.1,0,2,0.9,2,2c0,1.1-0.9,2-2,2c-1.1,0-2-0.9-2-2C20,57.9,20.9,57,22,57z M36,22H8v-2h28V22z M28,30H8v-2h20V30z M22,38H8v-2h14
	V38z"/>
<path fill-rule="evenodd" clip-rule="evenodd" fill="#FFFFFF" d="M22.5,114c-44.2,0-80-35.8-80-80s35.8-80,80-80s80,35.8,80,80
	S66.7,114,22.5,114z M22.5-44c-43.1,0-78,34.9-78,78c0,43.1,34.9,78,78,78s78-34.9,78-78C100.5-9.1,65.6-44,22.5-44z"/>
</svg>
