<?xml version="1.0" encoding="utf-8"?>
<!-- Generator: Adobe Illustrator 16.0.0, SVG Export Plug-In . SVG Version: 6.00 Build 0)  -->
<!DOCTYPE svg PUBLIC "-//W3C//DTD SVG 1.1//EN" "http://www.w3.org/Graphics/SVG/1.1/DTD/svg11.dtd">
<svg version="1.1" id="Layer_2" xmlns="http://www.w3.org/2000/svg" xmlns:xlink="http://www.w3.org/1999/xlink" x="0px" y="0px"
	 width="911.2px" height="298.3px" viewBox="0 0 911.2 298.3" enable-background="new 0 0 911.2 298.3" xml:space="preserve">
<rect x="509" y="28.8" fill="#FFFFFF" stroke="#EC008C" stroke-miterlimit="10" width="64.7" height="64.3"/>
<g>
	<linearGradient id="SVGID_1_" gradientUnits="userSpaceOnUse" x1="546.8354" y1="238.4346" x2="519.103" y2="43.9557">
		<stop  offset="0.5017" style="stop-color:#EC008C"/>
		<stop  offset="0.5131" style="stop-color:#EC008C;stop-opacity:0.9667"/>
		<stop  offset="0.8442" style="stop-color:#EC008C;stop-opacity:0"/>
	</linearGradient>
	<path fill="url(#SVGID_1_)" d="M716.5,61.2l7.9,192.9c0,0-145.3-19.2-154.9-19.8c0,0,4.1,10.9-15.6,10.9
		c-18.6,0-15.3-11.6-15.3-11.6l-184.6,20.5l10.3-161.2"/>
	<g>
		<g>
			<g>
				<g>
					<path fill="#EC008C" d="M360.9,93.6c0.1-1.1-0.5-0.7-0.6-0.9C360.3,94.5,361,93.5,360.9,93.6z"/>
					<polygon fill="#EC008C" points="361.1,111.7 360.8,111.3 361.3,114 					"/>
					<path fill="#EC008C" d="M360,128.5c1.1-1.5,0.2-6.1,0.8-9.1l0.3-0.5l-0.7-1.4C360.2,121.2,360.4,126,360,128.5z"/>
					<path fill="#EC008C" d="M357.2,137.4c0.4-0.5,0.2,2,0.3-2.1c-0.1,0.2-0.1,0.3-0.1,0.4C357.3,136,357.3,136.5,357.2,137.4z"/>
					<path fill="#EC008C" d="M357.4,135.7C357.4,133.9,356.9,136.8,357.4,135.7L357.4,135.7z"/>
					<path fill="#EC008C" d="M357.1,143.9l-0.2-2.4c-0.3,0.5-0.4,2.6-0.6,1.8C356.3,145.7,356.6,145.2,357.1,143.9z"/>
					<path fill="#EC008C" d="M357.7,146.2l-0.1-1.2C357.5,145.1,357.4,145.5,357.7,146.2z"/>
					<path fill="#EC008C" d="M357.4,142.3l0.1,2.6c0.2-0.3,0.5-0.3,0-1.2C357.8,144,357.6,143.5,357.4,142.3z"/>
					<path fill="#EC008C" d="M357.7,140.9c0.3-1.3,0.5-3,0.7-0.6C358.6,135.8,357.8,136.4,357.7,140.9z"/>
					<path fill="#EC008C" d="M361,129.5l0.4-1.7l-0.2-1.5C361.3,127,360.6,129.6,361,129.5z"/>
					<path fill="#EC008C" d="M355.6,158.4c0.2,0.2,0.6-0.7,0.9-0.9l-0.1-1.7C356.2,156.7,355.9,158.3,355.6,158.4z"/>
					<path fill="#EC008C" d="M356.5,157.5l0.2,2.6C356.9,157.8,356.8,157.4,356.5,157.5z"/>
					<polygon fill="#EC008C" points="358.7,146.6 358.2,142.4 358.7,147.5 					"/>
					<polygon fill="#EC008C" points="355,168.3 354.5,166.8 355.1,169.5 					"/>
					<path fill="#EC008C" d="M354.6,174.9c-0.3-1.1-0.8,1.4-1,0.3c0,1.8,0.2,3.3,0.4,4.7C354,178.4,354.2,176.8,354.6,174.9z"/>
					<path fill="#EC008C" d="M354.4,182.2c-0.1-0.7-0.2-1.5-0.3-2.3C354.1,180.6,354.2,181.4,354.4,182.2z"/>
					<path fill="#EC008C" d="M356.3,164.5c-0.1,0.2-0.5,0.6-0.7,2l0.7-1C356.3,165.2,356.3,164.9,356.3,164.5z"/>
					<path fill="#EC008C" d="M356.3,165.5L356.3,165.5c-0.1,1.1-0.2,1.9-0.2,2.2C356.1,167.5,356.2,166.8,356.3,165.5z"/>
					<path fill="#EC008C" d="M356.4,164.3c0,0.1,0,0.2,0,0.3C356.4,164.4,356.4,164.4,356.4,164.3z"/>
					<path fill="#EC008C" d="M357.8,153.4c0.2,1.5,0.4,4.7,1.1,1.7C358.5,154,358.1,155.7,357.8,153.4z"/>
					<path fill="#EC008C" d="M357.2,163.1l0.3-2.7c-0.2,0-0.4,0.5-0.5-0.2L357.2,163.1z"/>
					<polygon fill="#EC008C" points="357.3,164.4 357.2,163.1 357.1,164.1 					"/>
					<path fill="#EC008C" d="M355.3,177.5c0.2,1.2,0.1,2.5,0.1,4c0.2-1.6,0.4-3.2,0.5-4.7C355.7,176.5,355.4,175.8,355.3,177.5z"/>
					<path fill="#EC008C" d="M355.8,171.7c0,0.1,0,0.2,0,0.3C355.9,171.8,355.9,171.7,355.8,171.7z"/>
					<path fill="#EC008C" d="M354.4,195.9c0-0.1,0.1-0.1,0.1-0.2c0,0-0.1,0-0.1-0.1L354.4,195.9z"/>
					<path fill="#EC008C" d="M356,176.5c0.2-1.2,0.1-1.9-0.1-2.6c0,0.9,0,1.8-0.1,2.8C355.9,176.9,356,176.9,356,176.5z"/>
					<path fill="#EC008C" d="M354.4,186.2c0.2-0.6,0.3-1.3,0.5-2C354.7,184.8,354.3,186,354.4,186.2z"/>
					<path fill="#EC008C" d="M355.6,172.3c0-0.1,0-0.1,0-0.2C355.5,172.5,355.5,172.5,355.6,172.3z"/>
					<path fill="#EC008C" d="M355.6,172.3c0,0.6,0.2,1.1,0.3,1.6c0-0.7,0-1.4-0.1-2C355.8,172.1,355.7,172.2,355.6,172.3z"/>
					<path fill="#EC008C" d="M358,200.5c-0.5-0.2-0.9-3.4-0.1-6c-0.3-2.7-2.2-1.1-3.4,1.2c0.2,0.1,0.5,0.1,0.6,2.8
						c0.4-0.9,1.1-6,1.5-3.7c0.1,3.6-0.4,2.9-0.8,4.7c0.8-1.4,0.7,4.6,1.8,3.9l-0.2-3.2C357.6,200.2,357.8,201.4,358,200.5z"/>
					<path fill="#EC008C" d="M354.9,190.5l0-1.1c-0.2,1.3-0.5,2.2-1,3.8c0.2,1.9,0.3,2.3,0.5,2.4l0.4-5.5L354.9,190.5z"/>
					<path fill="#EC008C" d="M355.3,184.4c0.6,0.9,0.6,3.6,1.4,2c0.2-3.3-0.4-2.3-0.5-4.3C356,187.4,355.9,180.5,355.3,184.4
						c0-1.1,0.1-2,0.1-2.9c-0.1,0.9-0.3,1.9-0.5,2.7c0,0,0-0.1,0-0.1l0,0c0,0,0,0,0,0c0.1-0.2,0.1-0.3,0.1,0c0,0,0,0.1,0,0.1
						C355.1,184.2,355.2,184.3,355.3,184.4c-0.2,1.5-0.2,0.2-0.2-0.3c0,0-0.1-0.1-0.1-0.1l0,0l0,5.3
						C355.1,188.3,355.2,186.9,355.3,184.4z"/>
					<path fill="#EC008C" d="M360,158c-0.1,0.2-0.1,0.2-0.2,0.2C359.9,158.5,360,158.6,360,158z"/>
					<path fill="#EC008C" d="M359.5,160.2c-0.1-0.4-0.3-0.7-0.1-2c0.3-1.1,0.3,0,0.5,0c-0.1-0.8-0.3-2.7-0.7-0.3l0.1,0.4
						c-0.3,2.1-1.3,4.8-1.3,4.4C358.4,162.1,358.9,161.5,359.5,160.2z"/>
					<path fill="#EC008C" d="M357.5,172.4l0,4.4l0.7-2.2l-0.3,0.1C358.2,172.2,357.8,172.8,357.5,172.4z"/>
					<polygon fill="#EC008C" points="354.1,196.4 353.5,195.8 354.2,198.4 					"/>
					<polygon fill="#EC008C" points="353.8,202.1 353.3,201.9 353.5,203.4 					"/>
					<path fill="#EC008C" d="M611.2,236l1.3,0C611.9,236,611.5,236,611.2,236z"/>
					<path fill="#EC008C" d="M601.9,234.7l-0.3,0.2C602.1,234.9,602.3,234.8,601.9,234.7z"/>
					<path fill="#EC008C" d="M443.2,247.7c1.9,0.3,4.1,0.9,3.8,0.3l-0.6-0.5C445.1,247.7,444,247.8,443.2,247.7z"/>
					<path fill="#EC008C" d="M538.7,233.6c0,0,0.1-0.1,0-0.1l-0.1,0l-0.2,0c-0.3,0.1-0.5,0.1-0.8,0.2c-0.3,0.1-0.5,0.2-0.8,0.4
						c0.3-0.1,0.6-0.2,1-0.3c0.2-0.1,0.4-0.1,0.5-0.1l0.3,0L538.7,233.6C538.7,233.5,538.7,233.6,538.7,233.6z"/>
					<path fill="#EC008C" d="M539.9,233.6c0.1,0.4,0.2,0.9,0.4,1.3c0.2,0.5,0.3,1,0.7,1.5l-0.1,0.1c0,0,0,0,0-0.1
						c-0.1-0.4-0.2-0.8-0.4-1.3c-0.1-0.3-0.1-0.5-0.2-0.7c0-0.1-0.1-0.3-0.1-0.4C540,233.9,540,233.7,539.9,233.6z"/>
					<path fill="#EC008C" d="M662.3,241.9l1.6-0.4C661.5,241.2,662.5,241.6,662.3,241.9z"/>
					<path fill="#EC008C" d="M361.4,256.7c1.6,0.1,3,0,4.1-0.1C363.5,256.4,361.9,256.1,361.4,256.7z"/>
					<path fill="#EC008C" d="M606.7,242c0.8,0,1.2-0.1,1.1-0.2C607.1,241.7,606.6,241.8,606.7,242z"/>
					<path fill="#EC008C" d="M370.2,256.1c-0.3,0-0.6,0-0.9,0c-1.2,0.2-2.4,0.4-3.8,0.6C367,256.7,368.7,256.7,370.2,256.1z"/>
					<path fill="#EC008C" d="M715.9,131.3c0-0.1,0-0.3,0.1-0.4C715.9,130.9,715.9,131.1,715.9,131.3z"/>
					<path fill="#EC008C" d="M719.9,76.9c0.1,0.5,0.1,1.4,0.1,2.2C720,78.7,720,78,719.9,76.9z"/>
					<path fill="#EC008C" d="M352.1,225.2C352.1,224,352,225,352.1,225.2L352.1,225.2z"/>
					<path fill="#EC008C" d="M354.9,219.4c0.1,0.3,0.1,0.5,0.3,0.5C355,219.8,354.9,219.6,354.9,219.4z"/>
					<path fill="#EC008C" d="M381.8,250.9c0,0,0.1,0,0.1,0C381.6,250.8,381.6,250.8,381.8,250.9z"/>
					<path fill="#EC008C" d="M352.5,223.4c-0.1,0.5-0.2,1-0.3,1.5C352.3,224.7,352.3,224.2,352.5,223.4z"/>
					<path fill="#EC008C" d="M352.2,223.6c0.1-0.4,0.1-0.7,0.1-1.1C352.2,222.4,352.1,222.5,352.2,223.6z"/>
					<path fill="#EC008C" d="M352,226.9c0-0.7,0.1-1.3,0.2-2c-0.1,0.2-0.1,0.3-0.1,0.3C352.1,225.5,352,226,352,226.9z"/>
					<path fill="#EC008C" d="M721.6,231c0-0.1,0-0.2,0-0.3C721.4,229.5,721.4,230,721.6,231z"/>
					<path fill="#EC008C" d="M474,237.9c-0.1,0-0.1,0-0.1,0C473.9,237.9,474,237.9,474,237.9L474,237.9z"/>
					<path fill="#EC008C" d="M478.3,236.9c-1.8,1-2.8,1-4.3,1l1.6,1.6L478.3,236.9z"/>
					<path fill="#EC008C" d="M633.6,238.7l-3-0.9c3.8-0.4,6.4,0.2,3.7-0.9c-0.7,1.9-11.9-1.3-12.5,0.5l-2-0.7c0.6,0.1,0.7,0,1.2,0.1
						c-3.8-1.4-3.1,1-8.1,0.1c-1.7-0.4-2.9-0.8-1.7-0.9l-4,0c-1.1-0.2-0.8-0.5,0.3-0.3l-6-0.6l0.1-0.1c-0.9,0.2-2.9,0.4-3.8,0.5
						c-1.5-0.5,0.8-0.1,0.4-0.4l-3.4,0.1c-1.3-0.7,1.5-0.8,3.8-0.5c-2.9-2.3-2.8,0.1-9.4-1.8l3.2,0.1c-1.9-1.3-4.4-1.2-7.9-2.3
						c0.8,0.5,6.9,2.6,3.3,2.6c-1-0.3-2.3-0.5-4.3-0.3c0-0.7-1.9-0.7-4.3-1l0.2-0.9c-1.3,0-1.9,0.1-2.4,0.2
						c-0.2,0.1-0.4,0.1-0.7,0.2c-0.1,0-0.3,0.1-0.4,0.1c-0.2,0-0.3,0.1-0.6,0.1c-2.3-0.3-3.7-0.7-4.7-1.1c-0.6,0.1-1,0.1-1.4,0.2
						c-2,2.1-1.2,1.4-0.5,1.1c0.4-0.2,0.7-0.3,0.7-0.1c0,0.1-0.1,0.2-0.4,0.5c-0.1,0.1-0.3,0.3-0.5,0.4c-0.1,0-0.1,0.1-0.2,0.1
						c-0.1,0,0,0.1,0,0.1c0,0.1,0,0.2-0.1,0.3c0,0.1-0.1,0.2-0.1,0.2c-0.1,0.2-0.2,0.5-0.3,0.7c-0.1,0.3-0.3,0.5-0.4,0.8
						c-0.2,0.3-0.3,0.6-0.5,0.9c-0.2,0.3-0.4,0.7-0.6,1l-0.1,0.7c0,0.1-0.1,0.1-0.1,0.2c-0.1,0.1,0,0.3-0.1,0.4
						c-0.1,0.1-0.1,0.3-0.2,0.4c-0.1,0.1-0.2,0.3-0.3,0.4c-0.1,0.3-0.5,0.6-0.8,1c-0.4,0.3-0.8,0.6-1.3,1c-2.2,0.4,0.2-0.6-0.7-0.6
						c0,0-0.4,0.3-0.8,0.7c-0.2,0.2-0.4,0.3-0.6,0.4c-0.2,0.1-0.3,0.2-0.3,0.2c-0.5,0.1-0.4-0.2-0.3-0.3c-1.7,0.6,0.1,1-2.8,1.6
						c-0.3,0.6-1.9,0.3-3.8,0c-0.9-0.2-2-0.4-3-0.5c-1-0.1-1.9-0.2-2.9-0.1c-0.8-0.4,0.5-0.5,0.3-0.9c-2.3-0.1-3.2-0.4-4-0.6
						c-0.4-0.1-0.8-0.2-1.3-0.4c-0.4-0.2-1.1-0.4-1.8-0.9c0,0-0.1-0.1-0.2-0.4c-0.1-0.3-0.2-0.6-0.3-0.9c0-0.2-0.1-0.3-0.1-0.5
						c0-0.1,0-0.2,0-0.2c0-0.1,0-0.2,0-0.4c0-0.5,0-0.8,0-0.8c0,0.5,0,0.9-0.1,1.1c-0.1,0.2-0.1,0.2-0.2,0.3
						c-0.2,0.1-0.5-0.4-0.8-0.9c-0.6-0.7-1.1-1.8-1-2.8c0-0.2,0-0.3,0-0.5c-0.1,0.3-0.2,0.5-0.3,0.8c-0.3,1-0.5,1.6-0.5,2.1
						c-0.1-0.5-0.1-0.9,0-1.4c0-0.1,0-0.2,0-0.3l0-0.1c0,0,0-0.1-0.1-0.1l-0.7,0.2l-1.4,0.3c-0.4-0.1,0.1-0.5,1.1-1
						c-0.4,0.1-0.7,0.2-0.9,0.3c-0.1,0-0.2,0-0.2,0c-0.9-0.2-0.6-0.6,0.4-1.1c0.2-0.1,0.5-0.2,0.8-0.3c0.5,0.2,1,0.4,1.5,0.4
						l0.4-0.1c0,0,0.1,0,0.1,0c0,0,0,0.1,0,0.1c0,0.1,0,0.3,0.1,0.4c0.1,0.4,0.5,0.7,0.7,0.3c-0.1-0.2-0.2-0.4-0.3-0.8
						c0-0.2,0-0.3-0.1-0.5c0.1,0.2,0.1,0.3,0.2,0.1c0,0,0-0.1,0-0.2c0,0,0-0.1,0-0.1l0-0.1c0,0-0.1,0-0.1,0c-0.3-0.1-0.6-0.1-1-0.1
						c0,0-0.2-0.2-0.3-0.6c-0.2-0.3-0.3-0.7-0.3-0.7s-0.1,0.1-0.2,0.1c-0.1,0.1-0.2,0.1-0.2,0.1c-0.1-0.1-0.3-0.1-0.4-0.2l-4.3,0.2
						l-3,0c-4.4,1.5-8.2,3.4-15.4,4.7c1.7-0.9,0.3-1.2,0.3-2.1c2.1,0.7,5.6-1,9.3-1.2c-2,0.1-1.6-0.3-1.1-0.5l-6.6,1.6
						c0.1-0.7-1.5-0.4-3.3-0.5c1.5,1.3-4.9,1.5-7.5,2.2c-0.2-0.5,0.4-1,3.7-1.3c-3.8-0.7-4.5,2.2-8.2,1.7c0.8-0.1,1.3-0.1,1.5-0.4
						c-1.8,0.6-6.5,0.8-5.5,0.3l0.8-0.1c-5.4,0.4-16.4,1.8-17,3.1c-0.1-0.1,0.5-1.5,0.8-1.8l-9.1,5.1c0.7-1.1-2.8-3.2,1.6-4.3
						c-1.3,0-2.9,0-5.6,0.7c0.9,0,2.3,1.2,1.2,1.5c-3.4-0.8-2.3-0.4-6.5-0.9c1.3,0.1,0.1,1.9-2,2c0.3-0.3-0.3-1.6,0.4-1.8l-5,2.2
						c1.3-0.4,0.1-1.4-1.1-1.7c0.6,0.3-4.5,0.5-5.8,0.8l2.2,0.1c-5.8,0.4-5.5,2.9-11.3,3.4c0.7-0.4,1.5-2.2-1.5-2.1
						c-1.3,1-5.5,4.6-10.6,5.8l-1-0.4l-3.9,1c2.3-1.5,8.9-4.8,12.5-6.2c-2.2-0.1-0.7-0.5-3.9-0.1c-1.2-0.3,1.7-0.9,2.7-1l-7.6,0.6
						c0.4,0.9-5.7,1.6-5.3,2.4l8.1-1.9c0.4,0.9-4.5,3.2-9.9,3.6c-1.4-0.2,0.8-1.8,0.7-2.1c-0.7,0.4-5,1.2-5.6,1l2.2-0.8
						c-3,0-4.7,1.8-8.4,1.3c-1.2,0.1-3.8-0.8-4-0.2c2.1,0.9,2.9,4.2,1.7,5.1c-0.4,0-6.6-0.3-8.1-0.7c-2.1-0.6,2.8-2.4,1-2.9
						c0,0.3-1.1,0.7-1.6,0.9c-1.3-0.1,0.5-0.9-2.4-0.4c-0.4,1-5.8,0.6-1.2,1c-2.7,0.6-3,0.1-6.2,0.5c1.1,0.5-2.7,2.4-5.4,3
						c0.1-0.3-0.5-0.5-0.8-0.6c-5.7,0.5-8.8,0.4-14.1,1c-0.5-0.2-3.1-0.2-2.1-0.7c-0.7,0.3-1.4,0.7-3,0.9c-3.3-0.5,3.6-0.5,1.1-1.3
						c-0.1,0.3-1.1,0.6-2.4,0.9c-0.3,0.1-0.7,0.2-1,0.2l-0.8,0.2c-0.6,0.2-1.1,0.3-1.6,0.4c0.1,0.4,1.3,0.3,2.7,0.1
						c1.5-0.3,3.3-0.7,4.4-1c0.1,0.6-0.9,1.3-2.5,2c-0.9,0.4-1.7,0.7-3.2,1.1c-1.4,0.4-3.2,0.8-5.1,1.1c-0.9,0.1-1.5,0.2-2,0.3
						c0.1-1.6,0.3-1.9,0.5-2s0.3,0.1,0.3-0.2c0.2-2.6,0.2-4.3,0.1-5.7c0-0.8-0.1-1.2-0.2-1.7c-0.1-0.5-0.2-0.9-0.3-1.3
						c-0.3-1.6-0.6-3.1,0-6.5c0.9-2.7,1.5,0,2.1-0.6c0.1,3.6-0.8,5.5-1,7.9l0.6-3c0.2,1.2,0.2,3.6-0.1,4.9c0.8-2.3,1-14,2.1-20.4
						c-0.2-1.2-0.3-3.1-0.7-2.2l0,2c-0.7,1.8-0.6-3.9-1.1-1.3c-0.3-2.7-0.7-5.8-0.2-9.6l0.9-0.7c-0.3,0.1-0.7,2.5-0.5,3.6
						c-0.3-1.6,1.5-5.8,0.5-7.6l-0.8,2.6c-0.3-2.8-1-6.2-0.5-9.6c-1,1.5,0,0.8-1.1,3.1c1.4-2-0.6,8.7,0.9,5.4
						c-1.3,2.4-0.8,4.2-2,7.4c0.3-0.1,0.6-1.1,0.3,1.7c0.1,0.1,0.2,0.4,0.2,0.6c0,0.1,0,0.1,0,0.2c0-0.1,0-0.1,0-0.2
						c0,0.1,0,0.1,0-0.1c0.2-0.7,0.4-1.2,0.5-1.4c0.6,1.5,0.3,6,0.5,7.5c-0.2,1.7-0.3-0.7-0.6,0.2l0.4,2.3c-0.6,0.2-1.3,4.4-1.5,0.4
						l-0.3,3.6c-0.5,2.1-0.8,5-0.7,6.8c-0.2,1.7,0.4,4.3,0,2.8c0,0,0,0.4,0,0.9c0,0.3,0,0.6,0,0.9l0,0.3l0,0.4c0,0.3,0,0.6,0,0.9
						c0,2.3-0.1,4.5-0.1,4.5l-0.2,0.2c-0.1,1.5-0.2,3.1-0.2,4.6c3.6-0.5,7.4-1.1,11.2-1.6c2.5-0.3,5-0.5,7.7-0.4
						c1.8-0.4,3.7-0.8,6.9-0.9l0.7,0.5c2.4-0.5,7.2-0.2,8.2-0.9c2.7,1.2,11.6-1,15.8-1.2l0.1-0.7c2.9-0.3,5.6-0.8,9.2-1.5l-0.3-0.6
						c3-0.9,8-0.4,12.9-1c-0.3,0.3-1.6,0.4-2.4,0.3c6,0.8,12.2-2.4,17.6-2c1.3-0.4,2.3-0.4,3.2-0.3c-0.1,0-0.2,0-0.3,0.1
						c0.1,0,0.3,0,0.5-0.1c0.6,0,1.2,0.1,1.9,0.1c-0.6-0.1-1.1-0.2-1.6-0.2c1-0.1,2.5-0.4,4-0.7l0.7,0.6c0.1,0,0.2,0,0.3-0.1
						c1.5,0.1,1.2-0.5,0.3-0.9c0.7-0.2,1.4-0.4,2-0.6c1.3,1,3.9-0.8,5.7,0.2c1-0.7,7.6-1.3,8.2-2.6c0.1,0.1,0.5,0.2-0.3,0.3
						c1.7-0.1,3.4-0.1,4.9-0.6l0.8,0.8l3.6-1.6c2.3,0.3,3.3,0.5,1.1,1.4c5.3-1.6,4.3-0.9,8.8-2.4l-0.2,0.6c1.6-0.2,4.2-1.2,5.2-0.9
						c3.8,0.7,18.1-1.9,27.5-1.9c-2-1.4,4.4,0.3,4.7-1.1c0.6,0.3,1.9,0.4,0.4,0.9c4.7-0.9,7.2-0.2,10.4-1.6c0.6,0.3-1,0.7-0.4,0.9
						c0.4-0.1,1.5-0.5,2-0.3c0.5,0.2-0.7,0.4-1.4,0.7c1.2-0.2,2.2-0.3,2.9-0.6c0.2-0.1,0.3-0.1,0.5-0.2c0.1-0.1,0.1-0.1,0.2-0.2
						c0.1-0.1,0.2-0.2,0.3-0.3c0.4-0.5,0.7-1.1,1-1.7c0.1,0,0.2,0.1,0.4,0.1c0.4,0.1,0.8,0.1,1.1,0.1c0.2,0,0.4,0,0.6-0.1
						c0.1,0,0.1,0,0.1,0l0,0.1c0,0.1,0,0.1,0,0.2c0.1,0.2,0.2,0.4,0.3,0.6c-0.2,0.5-0.3,1-0.4,1.1c-0.1,0.1-0.3-0.1-0.4-0.9
						c0,0.3-0.1,0.9,0,1.5c0,0.1,0.1,0.3,0.1,0.5c0,0.1,0,0.1,0.1,0.2l0.2,0.4c0.2,0.5,0.4,1.1,0.7,1.6l0.5,0.8
						c0.2,0.2,0.4,0.4,0.5,0.7c0.4,0.4,0.7,0.9,1.2,1.1c0.4,0.3,0.8,0.6,1.1,0.8c0.4,0.2,0.7,0.3,1,0.5c0.6,0.2,1,0.3,1.1,0.2
						c0.5,0.4,2.5,1.1,3,1c2,0.6,3.1,0.6,4.2,0.8c0.6,0.1,1.1,0.1,1.7,0.1c0.7,0,1.4,0.1,2.4,0c0,0-0.3,0-0.5-0.1
						c-0.3,0-0.5-0.1-0.5-0.1c0.8-0.5,1.6-0.6,2.6-0.6c0.5,0,1.1,0,1.7,0.1c0.6,0,1.3-0.1,2.1-0.2l-0.1,0.1c0.9,0,1.7-0.1,2.3-0.2
						c0.6-0.1,1.1-0.2,1.5-0.3c0.8-0.2,1.1-0.4,1.5-0.6c0.2-0.1,0.4-0.2,0.6-0.3c0.2-0.1,0.5-0.3,0.9-0.4c0.4-0.2,0.8-0.3,1.4-0.7
						c0.3-0.2,0.6-0.4,1-0.6c0.4-0.2,0.7-0.6,1.1-0.9c0,0-0.2,0-0.4-0.1c-0.2,0-0.4-0.1-0.4-0.1c-0.1-0.4,0.1-0.7,0.5-1.3
						c0.2-0.3,0.5-0.6,0.6-1c0.2-0.4,0.5-0.9,0.6-1.1c0.4-0.7,0.6-1.4,0.5-2c0-0.2,0-0.3-0.1-0.5c0-0.1,0.1,0,0.1,0l0.2,0l0.3,0.1
						c0.4,0.1,0.8,0.1,1.1,0.1c0,0-1.3-0.5-1.3-0.5c0.3-0.1,0.8,0,1.3,0.2c0.5,0.2,1,0.4,1.4,0.7c0.2,0.1,0.4,0.3,0.6,0.4l0.3,0.2
						c0.1,0.1,0.3,0.1,0.4,0.2c1.1,0.6,2.2,1.1,3,1.3c0.5,0.2-0.8,0.1-1.4,0.1c5.6,1.5,0.8-0.8,5.1-0.5c0.7,0.6-1.1,1.1,1.7,1.5
						c1.4,0.6,8.4-0.6,12.2,0.8c-0.8-0.5-1.6-0.9,0.4-1c3,0.2,8,2.4,10.9,1.6c0.4,0.1,0.5,0.3,0.5,0.4c2.4,0,7.6,0.5,9,0
						c1.8,2.6,14.5,0.7,14.2,2.9l7.1,0.8l-0.2,0.2c4.5,0.7,6.2,0.4,7.9,0.1c1,0.3,0.2,0.4,0.1,0.5c6.6,1.3,7.3,1.3,13,0.9l0.5,0.8
						c1.6-0.2,9.5,2.3,16.1,2.4c-0.1,0.1-0.2,0.2-0.8,0.2c7.4,0.1,17.3,4.2,20.3,2l4.9,0c-6.2-1,1.1-1-1.4-1.7
						c2.5,0.2,6.3,1.6,3.2,1.3l-0.5-0.2c-1.3,1.2,7.7,1.5,7.4,2.4c2.6,0.3,5.2,0.7,7.7,1.1c3.6,0.5,7.1,1.1,10.6,1.6
						c-0.1-2.6-0.1-5.1-0.2-7.6c0-1.9-0.1-3.9-0.1-5.8c0-3.4-0.1-6.9-0.2-10.2l-1,1.4l-0.1-4.1c0.2-1.1,0.8-1.5,0.8,1.4
						c0.5-1.5-0.7-4.8-0.9-4.9c0.2-5.7,1.3,2.2,1.3,0.4l-0.2-2.4l-0.1,0.5c-0.5-1.9-1-2-1-5.5c0.1-2.2,0.6-1.2,0.6-2
						c0.1,0,0.1-0.3,0-1.3l-0.1-5.1l-0.7,2.1c-0.5-2.2-0.2-4.8-1-2.4c1.3-3.5-0.3-19.1,0.1-21.2c-0.7-3.1-0.8-6.3-0.9-10.2
						c-0.1,1-1,1.6-1.1-1.8c1.9,1.1,0.6-6.2,1.8-8.9c-0.8,2.5-0.6-9.5-1.7-5.7c0-2.8,0.7-0.2,1.1-2.3c-1-6.6-0.1-14.7-0.7-22.8
						c-0.3-0.1-0.6,1.3-1-0.5l1.1-4.4c-0.2-1.6-1.5-1.4-0.8-4.4c-0.2,0.4-0.5,1.1-0.6,0c0.6-16.1-2.3-32.8-0.7-49.2
						c-0.4,2.2-0.5,0.8-0.6-0.9c-0.1,1.1-0.6,0-0.9,0.2l0.7-6.9c-1-1.2-0.4-7.3-1.3-8l0.3,2.2c-1.2-2.8-2.2,4.1-3.6,3.8
						c1.3,3.2-1.4,8.6,0.5,13.8c-0.2,1.2-0.5-1-0.8-0.3c0.6,1.3,0.8,2.9,0.7,5.9l-0.2-0.3c0.5,8.4,0.1,12.1,0.1,21.5l0.6-0.7
						c0,2-0.2,2.5-0.3,3.4c1.1,2.3-0.2-5.7,1-3.6c-1.3,2.8,0.6,14.4-0.9,16.2c0.1,3.1,0.7-0.9,0.9,2.2l-0.4,0.8l0.6,0.8
						c0,2.1-0.5,3.1-0.8,3.2c0-0.5-0.2-1.4-0.2-1.9c-0.4,2.7,0.5,7.5,0.4,8.4l0.1-3c0.7,8.5,0.6,19,1.8,27.2l0.3-0.6
						c0.8,6.3-0.1,5.1,0.4,12l-0.1-0.2c0.4,1.4,0.6,3.2,0.6,5.1c-0.4-1.7-0.6,3.3-1.1,1c0.9,6.8,0.6,3.4,2,7.8l-0.5,1.1
						c0.5,1.5,0.8,1.6,1.1,5.1c-0.6-2.8-0.7,2.2-1.4-0.9c-0.9,7.3,1.6,10.7,0.1,14.1c1.6,3.3,0.5-6.3,0.9-4.5c0.4-1.6,1.2,2.7,1.1,5
						c0.1,2.3-1.7,4-1.4,9.8c0-0.6-0.1-0.6-0.1-1.2c-0.3,2.2,0.7,4.3,0.2,7c0.9,1.5,0.1,3.5,1.2,3.9L721,223c0.4,3,1.8,5.8,1.4,10.8
						c-0.2-0.4-0.6-1.9-0.8-2.9c-0.3,1.5,0.3,2.8,0.1,4.3c-1.1-0.4-0.5-6.5-1.5-9.7c-0.4,1.6,1.1,6.1-0.2,4.5c1.6,2.3,0,5.8,1.4,9.6
						l-0.7-0.2c0.1,0.6,0.5,1.9,0.5,3.1l-1-2c0.4,1.6,0.3,3.1,0.2,4.7c-0.1,0.8-0.2,1.5-0.2,2.3l0,0.3l0,0.1c0,0.1,0,0.1,0,0.2
						c0,0.1,0,0.2,0.1,0.3c0-0.2,0-0.4,0-0.6c0-0.2,0-0.4,0-0.5c0-0.2,0-0.3,0-0.4c0.1-0.5,0.2-0.6,0.3-0.5c0.3,0.1,0.6,0.6,0.8-0.7
						c0.1,0.7,0.2,1.4,0.2,1.9c0,0.2,0,0.4,0,0.5c0,0.1,0,0.3,0,0.4c0,0.5-0.1,0.8-0.3,0.9c-0.3,0.3-0.8,0.3-1.1,0.4
						c-0.5-0.3-0.9-0.4-1.5-0.4c0.1,0,0.5,0.1,0.8,0.3c0.3,0.2,0.6,0.4,0.4,0.6c-0.4-0.1-0.8-0.3-1.1-0.4c-0.2-0.1-0.3-0.2-0.4-0.3
						c0-0.1-0.5-0.2-0.7-0.3c-5.8-0.6,0.8,0.8-1.7,0.9c-1.9-1.1-2.9,0-5.5-0.1l0.1-0.7c-6.6-1.3-1.9,1.2-7.9-0.1l2.6-0.6l-3.1-0.2
						l0.7-0.7c-3.5,0.1-4.5-0.2-7.8-0.8c0.7,0.6-0.6,1.2-3.5,0.8c-2-0.7,1.2-0.5-3-0.9c1-0.3,2.1-0.7,3.8,0.2c0.2-0.2,1-0.3,1.2-0.5
						c-2.1-0.7-5.4-0.8-6.9-1c0.6,0.1,1.3,0.2,1.6,0.4l-6.2,0.2c-0.9-0.4-0.1-0.5,0.6-0.6c-1.2-0.1-2.1,0.1-3.9-0.1
						c0.5-0.5,0.5-1.1,3.1-1l-5.8-0.1c-0.4-0.3-2.9-1-2.1-1.1c-3.2-0.7-8,0-12.1-0.9c-0.2,0.1-0.7,0.1-1.6,0.1
						c-4-0.6-7.4-1.8-12.2-1.6l-2.5-1.3c-3.7-0.3,3.5,1.7-2.7,1.3c-4.4-0.2-1.5-1.1-3-1.5c-2.2,0.2-6.1,0.8-10-0.6
						C631.3,238.3,632.3,238.6,633.6,238.7z M587.9,233.3c0.9,0,2.7-0.3,3.3,0.2C590.1,234.2,589.4,233.7,587.9,233.3z M531.9,232.9
						c0.2-0.1,0.3-0.1,0.5-0.2c0.1,0,0.2,0,0.3,0c0.1,0,0.3,0,0.4,0c0.6,0,1.3,0,2,0c-0.5,0.1-1.1,0.2-1.6,0.2c-0.3,0-0.6,0-0.9,0
						C532.4,232.9,532.2,232.9,531.9,232.9z M351.8,238.5C351.8,238.6,351.8,238.6,351.8,238.5C351.4,240.6,351.6,239.9,351.8,238.5
						z M352.3,234.4c-0.1-0.4-0.2-0.4-0.3-0.2c0.2,0.3,0.1,1.2,0,2.3C352.3,236.2,352.4,235.7,352.3,234.4z M725.7,217.8l-0.1,0.8
						C725.3,216.8,725.5,217.3,725.7,217.8z"/>
					<path fill="#EC008C" d="M539.7,233.6c0,0.3,0,0.4-0.1,0.5C539.8,234.4,539.9,234.3,539.7,233.6z"/>
					<path fill="#EC008C" d="M662,242l0.1,0c0.1,0,0.1-0.1,0.2-0.1L662,242z"/>
					<path fill="#EC008C" d="M397.9,246.4c0.9,0,1.3,0.1,1.7,0.2C399.6,246.4,399.2,246.3,397.9,246.4z"/>
					<path fill="#EC008C" d="M352.6,212.6l0,2.6c0-1.3,0.2-1.7,0.4-2.4C352.8,212.9,352.5,213.4,352.6,212.6z"/>
					<path fill="#EC008C" d="M358.2,190c-0.1-0.4,0-0.8,0-1.2l-0.3,0.1C357.8,190.5,358,191.7,358.2,190z"/>
					<path fill="#EC008C" d="M355,210.3c0.6-0.2,0.5-1.8,0.5-3.7c0,0.1,0,0.2,0,0.3C354.7,206.3,354.8,208.3,355,210.3z"/>
					<path fill="#EC008C" d="M355.5,206.2c0-0.6,0-1.2,0.1-1.7C355.3,204.2,355.5,205.1,355.5,206.2z"/>
					<path fill="#EC008C" d="M352.3,229.2c0.2-0.9-0.7-0.6-0.4-1.1C351.2,227.1,352.4,234,352.3,229.2z"/>
					<polygon fill="#EC008C" points="357,208.9 356.2,209.5 356.7,210.6 					"/>
					<path fill="#EC008C" d="M355.5,223.4l0.4-2.9c-0.1,0-0.2-0.3-0.2-0.8C355.6,221.5,355.3,223.5,355.5,223.4z"/>
					<path fill="#EC008C" d="M355.7,219.7c0.1-0.9,0.1-1.8,0-2.4C355.7,217.8,355.7,218.9,355.7,219.7z"/>
					<polygon fill="#EC008C" points="356.9,212.9 356.7,213.8 356.5,215.9 					"/>
					<path fill="#EC008C" d="M354.6,254.7l3.7-0.6c0.4-0.3-0.4-0.3-1.7-0.1C355.7,254.2,354.3,254.5,354.6,254.7z"/>
					<path fill="#EC008C" d="M355.9,245.5c-0.2,0.9-0.4,0.9-0.6,1.4l0.9,0.2L355.9,245.5z"/>
					<path fill="#EC008C" d="M356.2,252.4c0.2-0.1,1.2-0.4,1.7-0.6c0.5-0.2,0.5-0.3-0.7-0.1c-0.2,0.1-0.7,0.3-1.1,0.4
						c-0.1-0.2-0.2-0.4-0.3,0.3C355.9,252.3,356,252.4,356.2,252.4z"/>
					<polygon fill="#EC008C" points="403.1,248.3 402.3,248.4 402.6,249.8 					"/>
					<path fill="#EC008C" d="M445.3,240.1c-3.8,0.1-0.8,1-4.3,0.9c-0.9,0.4,2.8,0,2,0.4C445.2,240.9,446.4,240.9,445.3,240.1z"/>
					<path fill="#EC008C" d="M443,241.5c-0.4,0.1-0.7,0.2-1.1,0.3C442.5,241.7,442.8,241.6,443,241.5z"/>
					<polygon fill="#EC008C" points="720.3,67.8 720.5,65.4 720.1,67 					"/>
					<path fill="#EC008C" d="M719,63.2l0.9-0.6l-0.9-1.4C719.1,61.7,719.2,62.7,719,63.2z"/>
					<path fill="#EC008C" d="M581.3,230.7l-0.2,0.2c0.4,0.3,0.9,0.4,2.1,0.5L581.3,230.7z"/>
					<polygon fill="#EC008C" points="614.4,235.5 613.9,235.4 614.8,236.3 					"/>
					<path fill="#EC008C" d="M642.3,238c-1.1-0.2-2.5-0.2-3.6-0.3C641.2,237.8,642.5,239.1,642.3,238z"/>
				</g>
			</g>
		</g>
	</g>
</g>
<g id="Layer_4">
	<defs>
		<path id="SVGID_2_" d="M535.8,212.4c2.3,0.3,4.7,0.2,6.7,1.2c2.5,1,4.5,3,6.8,4c-1.3-1.5-4.8-2.3-7-2.7c4.3,2.3,9.3,3.7,13.3,6.2
			c-0.3,0-0.7,0-0.8,0c2.3,2.7,7.7-4.7,9-6.5c2.2-3,5.7-6.3,9.5-5.5c-0.8,1.2-2.2,0.8-3.5,1.3c-1.7,0.7-3.3,2.3-4.7,3.3
			c2.3,0.3,3.5-2.7,6-2.3c-1.7-0.2-3,0.5-4,1.7"/>
	</defs>
	<clipPath id="SVGID_3_">
		<use xlink:href="#SVGID_2_"  overflow="visible"/>
	</clipPath>
</g>
<g>
	<g>
		<path fill="#FFFFFF" d="M567.3,199.9c-1.8,0.9-4.9,1.8-7.3,3c-2.2,1.1-4,3.1-6.3,4.3c-3.7,1.8-4.7,6.9-2.7,10.3
			c2.2,3.7,6.6,4.5,10.3,2.7c2.3-1.1,4.1-2.9,6.3-4.3c1.6-1.1,5-1.8,7.3-3c3.6-1.9,4.7-6.9,2.7-10.3
			C575.4,198.9,570.9,198,567.3,199.9L567.3,199.9z"/>
	</g>
</g>
<g>
	<path fill="#FFFFFF" d="M559.8,223.2c0,0,15-24.5,57-2.5c11.2,5.3,31,11.3,31,11.3s31,8.6,64.3,8.6c-1-25-3-194-3-194"/>
	<path d="M559.7,223.1c1.7-2.9,4.2-5.3,7-7.3c2.8-2,6-3.4,9.3-4.3c3.3-0.9,6.8-1.3,10.2-1.3c3.4,0,6.9,0.4,10.2,1.1
		c3.4,0.7,6.6,1.7,9.8,2.8c3.2,1.2,6.3,2.5,9.3,4.1l1.1,0.6l0.6,0.3l0.1,0.1l0.1,0c0.1,0-0.1,0-0.1,0l0,0l0.3,0.1l2.3,1
		c1.5,0.7,3,1.3,4.6,1.9l2.3,0.9l2.3,0.9l4.6,1.8c3.1,1.2,6.2,2.4,9.4,3.5l4.7,1.7c1.5,0.5,3.2,0.9,4.8,1.4c3.2,0.9,6.4,1.7,9.7,2.4
		c1.6,0.4,3.3,0.7,4.9,1.1l4.9,0.9c1.6,0.3,3.3,0.6,4.9,0.8l5,0.7c3.3,0.4,6.6,0.8,10,1.1c1.7,0.2,3.3,0.2,5,0.3
		c1.7,0.1,3.3,0.2,5,0.2c3.3,0.2,6.7,0.1,10,0.1l-0.6,0.6l-0.5-12.1c-0.2-4-0.2-8.1-0.3-12.1c-0.2-8.1-0.4-16.2-0.6-24.2l-0.5-24.2
		l-0.3-24.2c-0.1-8.1-0.2-16.2-0.3-24.2l-0.2-24.2l0-24.2l0.1-24.3l0.2,0l0.7,24.2l0.6,24.2l0.5,24.2l0.4,24.2l0.4,24.2l0.3,24.2
		l0.3,24.2c0.1,4,0.1,8.1,0.2,12.1l0.2,12.1l0,0.6l-0.6,0c-3.3-0.1-6.7-0.2-10-0.4c-1.7-0.1-3.3-0.2-5-0.4c-1.7-0.1-3.3-0.3-5-0.5
		c-3.3-0.3-6.7-0.7-10-1.1l-5-0.7c-1.7-0.3-3.3-0.5-5-0.7c-6.6-1-13.2-2.2-19.8-3.5c-1.7-0.3-3.3-0.7-5-1.1
		c-1.6-0.4-3.2-0.9-4.8-1.4c-3.2-0.9-6.4-1.9-9.6-2.9c-1.6-0.5-3.2-1-4.8-1.6l-2.4-0.8l-2.4-0.9c-1.6-0.6-3.2-1.2-4.7-1.9l-2.3-1
		l-0.3-0.1l-0.4-0.2l-0.6-0.3l-1.1-0.6c-2.9-1.5-5.9-2.8-9-4c-3.1-1.1-6.2-2.2-9.3-2.9c-3.2-0.7-6.4-1.2-9.6-1.4
		c-3.2-0.2-6.5,0.1-9.7,0.7c-3.2,0.7-6.3,1.8-9.1,3.4c-1.4,0.8-2.8,1.7-4,2.8c-1.3,1.1-2.5,2.2-3.5,3.5L559.7,223.1z"/>
</g>
<g>
	<g>
		<path fill="#FFFFFF" d="M530.6,95.3c12.5-0.1,23.8-1.9,34.8-8c5.8-3.2,4.3-11.9-1.8-13.7c-11.7-3.4-24.2,0.7-35.7,2.8
			c-9.5,1.7-21.2-0.7-28.6,7.1c-3.1,3.3-3,9.6,1.5,11.8c13.5,6.5,29.4,3.3,43.8,2.6c6.7-0.3,13.5-0.7,20.2-1.1
			c6-0.4,13.8-1.3,19.5,1.4c0-4.3,0-8.6,0-13c-29.2,12.8-62.6,13-90.5,29.5c-6,3.5-4,14.8,3.8,14c16.7-1.9,32-7.8,47.3-14.5
			c6.8-3,3.4-14.5-3.8-14c-6.4,0.5-12.5,2.5-18.6,4.1c-4.5,1.2-12.3,3.8-15.6,1.4c0.9,3.4,1.8,6.8,2.7,10.3c2.1-5,5.3-9.3,8-14
			c3.1-5.5-2.1-13.2-8.5-11c-13.2,4.4-24.7,12.4-37.3,18.3c3.4,3.4,6.8,6.8,10.3,10.3c0.6-0.8,1.4-1.7,2-2.5
			c5-6.9-6.5-15.8-11.8-9.1c-7.4,9.3-16,17.7-22.2,28c-2.5,4.2-0.1,9.6,4.5,11c5.5,1.6,10.6-0.1,16-1c-3.1-1.7-6.2-3.5-9.2-5.2
			c0.8,3.4-1,7.6-1.3,11c-0.4,6,6.6,8.9,11.3,6.5c12.3-6.3,20.1-18.5,29-28.7c-3.5-3.5-7.1-7.1-10.6-10.6c-4.1,5.1-8.4,9.9-13,14.5
			c4.2,2.4,8.4,4.9,12.5,7.3c2.4-7,6.1-13.3,9.7-19.7c-4.3-2.5-8.6-5-13-7.6c-8.5,16.1-20.4,32.5-21.5,51.3
			c-0.4,6.3,8.6,10.2,12.8,5.3c3-3.5,6-6.9,9.5-10c-4.3-1.8-8.5-3.5-12.8-5.3c0.6,5.7-2.2,11.3-2.5,17c-0.3,5.1,5,8.2,9.5,7.2
			c4.3-1,7.7-3.3,11.3-5.8c-3.8-2.2-7.5-4.3-11.3-6.5c0.2,2.9-0.7,5.6-1.2,8.5c-0.6,3.1,0.2,7,3.4,8.5c1.8,0.8,3.4,1.7,5.3,2.3
			c-1.7-3.1-3.5-6.2-5.2-9.2c-0.3,2,0.2,4.2,0,6c-0.5,3.8,0.8,8.4,5.2,9.2c8.4,1.5,16.9,1.8,25.5,1.8c-1.3-4.7-2.5-9.3-3.8-14
			c-1.3,0.8-2.7,1.7-4,2.5c-7.4,4.7-2.5,15.3,5.8,13.7c4.2-0.8,8-2.4,11.8-4.3c-3.7-1.5-7.3-3-11-4.5c3,9,12.1,10.1,20.2,11.6
			c5.5,1,16.9,7.2,15.3,14.4c4.2-1.1,8.4-2.2,12.5-3.3c-2.1-1.7-4.1-3.6-6-5.5c-1.1,4.2-2.2,8.4-3.3,12.5c4.6-1.1,8.9,0.3,13.3-2.3
			c3-1.8,4.8-5.5,8.5-5.6c4.9-0.2,9.1-0.9,13.2-3.9c3.6-2.7,6.9-5.3,10.7-7.8c7.5-5,12.8-11.8,18.8-18.3
			c6.9-7.5,14.3-14.6,18.6-23.9c2.6-5.7-1.6-13-8.5-11c-10.6,3-18.6,10.3-25.8,18.3c-6.8,7.6-13,16.6-22.2,21.5
			c-4.6,2.5-10.3,2.1-15.4,2.3c-6.8,0.3-14.2,0.6-20.5-2.3c-6.9-3.1-13.5-6.9-21-8.6c-8.3-1.9-16.9-1.3-25.2-2.8c0,4.8,0,9.6,0,14.5
			c9.4-2,19.2-0.2,28.7,0.6c11.2,0.9,22.6,0.2,33.8,0.2c12.4,0,30.6,4.4,40.3-5.7c3.9-4,2.2-11-3.3-12.5
			c-16.9-4.5-34.5-2.4-51.7-1.5c-18.9,1-39,1.7-57.8-1c0,4.8,0,9.6,0,14.5c20.6-4.8,42.1-2.9,63.1-2.9c9.2,0,18.5-0.4,27.7-0.7
			c9.2-0.3,18.9-1.4,26.9-6.2c5.2-3.1,4.8-12.5-1.8-13.7c-9.6-1.8-19.2-1.5-28.9-1.6c-10.3-0.2-20.7-0.4-31-1.1
			c-21.3-1.3-42.7-4.4-64.1-4.6c-9.7-0.1-9.6,14.7,0,15c43.3,1.4,86.7-1,130-0.5c9.9,0.1,9.4-14,0-15c-41.9-4.4-84.1,0.3-126-4.5
			c0,5,0,10,0,15c45.2-0.9,90.4,2.4,135.5-0.5c7.9-0.5,10.8-13.5,2-14.7c-22.8-3.1-45.8-3.6-68.8-4.4c-23.1-0.8-46-3.3-69.2-3.3
			c-9.7,0-9.7,14.9,0,15c47,0.6,94,9.4,141,4c7.8-0.9,10.9-12.8,2-14.7c-43-9.1-87-13.7-131-13.8c0,5,0,10,0,15
			c44.2-0.5,88.3,0.5,132.5,1c0-5,0-10,0-15c-19.9,0-39.7-0.9-59.4-3.3c-9.2-1.1-18.5-2.6-27.5-4.9c-9.2-2.3-18.5-4.9-28.1-4.3
			c-7.4,0.5-10.3,9.9-3.8,14c1.2,0.7,2.3,1.4,3.5,2c1.3-4.7,2.5-9.3,3.8-14c-4.1-0.1-8-0.4-12-1.2c0,4.8,0,9.6,0,14.5
			c18-2.6,36.4-2.2,54.5-2.1c18.7,0,37.4-0.4,56,0.9c0-5,0-10,0-15c-33.1,2.9-66.7,0.2-99-7.7c0,4.8,0,9.6,0,14.5
			c31.3-4.8,63.1,1.1,94.5,0.3c8.2-0.2,10.6-13.2,2-14.7c-33.4-6.1-66.6-14.1-100.5-17.3c0,5,0,10,0,15c30.3-1.5,60.7-0.5,91-0.5
			c0-5,0-10,0-15c-7.6,0.2-15,2-22.5,2.4c-7.5,0.3-15.3-3.9-22.2-6.3c-15.3-5.2-34-6-49.8-1.8c-9.3,2.5-5.4,17,4,14.5
			c15.4-4.2,31.8-1.8,46.5,3.4c7,2.5,13.9,5.2,21.5,5.2c7.6,0,15-2.2,22.5-2.4c9.7-0.2,9.7-15,0-15c-30.3,0-60.7-1-91,0.5
			c-9.8,0.5-9.5,14.1,0,15c32.6,3,64.4,10.9,96.5,16.7c0.7-4.9,1.3-9.8,2-14.7c-32.9,0.9-65.7-4.7-98.5,0.3
			c-7.5,1.1-6.8,12.8,0,14.5c33.5,8.3,68.6,11.3,103,8.3c9.6-0.8,9.7-14.3,0-15c-18.7-1.3-37.3-0.9-56-0.9
			c-19.6,0-39.1-0.2-58.5,2.7c-7.4,1.1-7,13,0,14.5c5.3,1.1,10.6,1.7,16,1.8c7.1,0.1,10.7-10.7,3.8-14c-1.2-0.6-2.3-1.3-3.5-2
			c-1.3,4.7-2.5,9.3-3.8,14c8.9-0.5,17.3,2.1,25.8,4.2c9.7,2.5,19.8,3.7,29.8,5c19.7,2.5,39.6,3.2,59.4,3.3c9.7,0,9.7-14.9,0-15
			c-44.2-0.5-88.3-1.5-132.5-1c-9.7,0.1-9.7,15,0,15c42.7,0.1,85.3,4.4,127,13.2c0.7-4.9,1.3-9.8,2-14.7c-47,5.4-94-3.4-141-4
			c0,5,0,10,0,15c21.8,0,43.4,2.3,65.2,3.2c22.9,0.9,46,1,68.8,4c0.7-4.9,1.3-9.8,2-14.7c-45.1,2.9-90.3-0.4-135.5,0.5
			c-9.9,0.2-9.4,13.9,0,15c41.9,4.8,84.1,0.1,126,4.5c0-5,0-10,0-15c-43.3-0.5-86.7,1.9-130,0.5c0,5,0,10,0,15
			c20.1,0.1,40.2,2.9,60.2,4.3c10.4,0.7,20.9,1.2,31.3,1.2c9.4,0,19.2-0.5,28.5,1.2c-0.6-4.6-1.2-9.1-1.8-13.7
			c-6.6,3.9-14.9,4-22.3,4.2c-9.4,0.3-18.9,0.7-28.3,0.6c-21.2-0.1-42.7-1.5-63.6,3.4c-6.8,1.6-7.5,13.4,0,14.5
			c19.3,2.8,39,2.3,58.5,1.6c16.8-0.6,34.5-3.6,51,0.9c-1.1-4.2-2.2-8.4-3.3-12.5c-2.3,2.4-10.2,2-14.3,2c-7-0.1-14-0.7-21.1-0.7
			c-10.5,0-21.1,0.4-31.6-0.5c-9.8-0.8-19.5-1.8-29.2,0.3c-7.1,1.5-7.3,13.2,0,14.5c8.4,1.5,16.9,1.3,25.2,2.8
			c7.3,1.3,13.7,5.6,20.5,8.4c6.8,2.9,14.5,3.2,21.8,3.1c6.7-0.1,13.9-0.1,20.4-2.1c11-3.4,19.1-12.5,26.3-20.9
			c6.6-7.7,13.6-17,23.8-19.9c-2.8-3.7-5.6-7.3-8.5-11c-3.5,7.7-9.4,13.6-15.2,19.7c-5.5,5.9-10.2,12.5-16.8,17.1
			c-3.4,2.4-6.9,4.2-10,7c-3.6,3.2-6.6,2.5-11.2,3.2c-3.8,0.6-7.3,3.3-10,5.9c-0.6,0.6-1.2,1.1-1.8,1.7c1-0.6,0.7-0.7-1-0.4
			c-2.7,0.1-5.4,0.1-8,0.8c-5.6,1.3-7.2,8.7-3.3,12.5c1.9,1.9,3.9,3.8,6,5.5c4.1,3.2,11.2,2.7,12.5-3.3c2.7-12.5-5.5-21.8-15.2-28.5
			c-3.6-2.5-7.5-3.7-11.8-4.5c-2.3-0.4-4.5-0.8-6.8-1.3c-0.1,0-1.9-0.5-2-0.6c-1.5-0.7-0.2-0.5,0.2,0.9c-1.6-4.8-6.5-6.7-11-4.5
			c-2.7,1.3-5.3,2.2-8.2,2.7c1.9,4.6,3.9,9.1,5.8,13.7c1.3-0.8,2.7-1.7,4-2.5c6.2-3.9,3.9-14-3.8-14c-7.2,0-14.4,0.1-21.5-1.2
			c1.7,3.1,3.5,6.2,5.2,9.2c0.3-2-0.2-4.2,0-6c0.6-4-0.9-8-5.2-9.2c-0.6-0.2-1.2-0.5-1.7-0.7c1.1,2.8,2.3,5.6,3.4,8.5
			c0.8-4.2,2-8.2,1.8-12.5c-0.3-5.3-6.3-9.9-11.3-6.5c-2.5,1.7-4.8,3.6-7.7,4.2c3.2,2.4,6.3,4.8,9.5,7.2c0.3-5.8,3.2-11,2.5-17
			c-0.7-6.5-7.6-9.9-12.8-5.3c-3.5,3.1-6.5,6.5-9.5,10c4.3,1.8,8.5,3.5,12.8,5.3c0.4-7.7,4.1-15,7.5-21.7c3.8-7.4,8.1-14.6,12-22
			c4.5-8.5-8.1-16-13-7.6c-4.3,7.5-8.4,15.1-11.3,23.3c-2.5,7.3,7.5,12.4,12.5,7.3c4.6-4.6,8.9-9.4,13-14.5c6-7.4-4.1-18-10.6-10.6
			c-7.9,9.1-15,20.7-26,26.3c3.8,2.2,7.5,4.3,11.3,6.5c0.4-5.3,2-9.6,0.7-15c-1-4.3-5.3-5.9-9.2-5.2c-2.5,0.4-5.5,1.8-8,1
			c1.5,3.7,3,7.3,4.5,11c5.5-9.2,13.2-16.6,19.8-25c-3.9-3-7.9-6.1-11.8-9.1c-0.6,0.8-1.4,1.7-2,2.5c-4.9,6.7,4.2,13.1,10.3,10.3
			c11.4-5.3,21.8-12.7,33.7-16.7c-2.8-3.7-5.6-7.3-8.5-11c-2.7,4.7-5.9,9-8,14c-1.7,4-1,7.7,2.7,10.3c12.3,8.7,29.5-2.5,41.8-3.5
			c-1.3-4.7-2.5-9.3-3.8-14c-12.6,5.6-25.9,10.9-39.7,12.5c1.3,4.7,2.5,9.3,3.8,14c27.6-16.3,61.4-16.8,90.5-29.5
			c5-2.2,4.8-10.7,0-13c-13.2-6.4-28.7-2.9-42.7-2.5c-7.1,0.2-14.1,0.8-21.2,1.2c-6.2,0.3-13.9,1.1-19.6-1.7c0.5,3.9,1,7.9,1.5,11.8
			c1.7-1.8,5.8-1.8,8.3-2c4.1-0.3,8.3-0.4,12.4-1c9.1-1.5,19.8-5.7,29-3c-0.6-4.6-1.2-9.1-1.8-13.7c-8.7,4.8-17.4,5.9-27.2,6
			C520.9,80.3,520.9,95.3,530.6,95.3L530.6,95.3z"/>
	</g>
</g>
<g>
	<path fill="#FFFFFF" d="M552.5,223.2c0,0-17.8-21.2-89.3,2.8c0,0-68,17.7-99,17.7c0.5-16.5,7.7-202,7.7-202"/>
	<path d="M552.4,223.2c-1.5-1.4-3.2-2.3-5-3.2c-1.8-0.9-3.7-1.5-5.6-2c-1.9-0.5-3.9-0.9-5.8-1.3c-1-0.2-2-0.3-2.9-0.4
		c-1-0.1-2-0.2-3-0.3c-4-0.3-7.9-0.3-11.9-0.1c-4,0.2-7.9,0.6-11.9,1.2c-3.9,0.6-7.9,1.2-11.8,2c-3.9,0.8-7.8,1.7-11.7,2.7l-5.8,1.5
		l-5.8,1.6c-1.9,0.5-3.9,1.1-5.8,1.7l-1.4,0.4l-0.4,0.1l-0.1,0l0,0l-0.1,0l-0.2,0l-0.7,0.2l-3,0.7c-3.9,0.9-7.9,1.7-11.8,2.5
		l-11.8,2.4l-11.8,2.4c-3.9,0.8-7.9,1.6-11.8,2.4l-11.9,2.3c-4,0.7-7.9,1.4-11.9,2c-8,1.2-16,2.3-24.1,2.4l-0.9,0l0-1l1.7-50.5
		l2-50.5l1.1-25.2l1.1-25.2l1.2-25.2l1.3-25.2l0.2,0l-0.6,25.3l-0.7,25.3l-0.8,25.3l-0.8,25.3l-1.9,50.5l-2.1,50.5l-0.9-0.9
		c4,0,8-0.2,12-0.5c4-0.3,8-0.7,12-1.2c4-0.5,8-1.1,11.9-1.7c4-0.6,7.9-1.3,11.9-2.1c4-0.8,7.9-1.6,11.8-2.4
		c3.9-0.9,7.9-1.7,11.8-2.7c3.9-1,7.8-2,11.7-3l11.6-3.2l2.9-0.8l0.7-0.2l0.2-0.1l0.1,0l0,0c0,0-0.1,0,0,0l0.4-0.1l1.4-0.5
		c1.9-0.7,3.8-1.4,5.7-2c3.8-1.2,7.7-2.5,11.6-3.5c2-0.5,3.9-1,5.9-1.5c2-0.4,4-0.9,6-1.2c2-0.4,4-0.8,6-1.1l3-0.5l3-0.4
		c4-0.4,8.1-0.8,12.2-0.8c4.1,0,8.2,0.1,12.2,0.7c4,0.6,8.1,1.4,11.9,2.8c1.9,0.7,3.8,1.5,5.6,2.6c1.8,1,3.4,2.2,4.8,3.8
		L552.4,223.2z"/>
</g>
<g>
	<path d="M554.3,209.8c0.6-1.4,1.1-2.9,1.8-4.3c0.7-1.4,1.4-2.8,2.3-4.1c1.8-2.6,4-4.9,6.8-6.5c1.4-0.8,2.9-1.5,4.4-1.9
		c1.5-0.5,3.2-0.7,4.8-0.8c1.6-0.1,3.2,0,4.8,0.2c0.4,0.1,0.8,0.1,1.2,0.2l1.1,0.3c0.8,0.2,1.6,0.4,2.3,0.6c3,0.9,5.9,1.9,8.8,3
		c2.9,1.1,5.7,2.3,8.6,3.5c5.7,2.4,11.2,5.1,16.7,7.8l-0.1-0.1c1,0.4,2,0.7,2.9,1.1l2.9,1.2l5.7,2.4c3.8,1.6,7.5,3.3,11.3,4.9
		c1.9,0.8,3.8,1.6,5.7,2.4s3.8,1.5,5.7,2.3c1.9,0.7,3.9,1.4,5.8,2.1l2.9,1l3,0.9l-3-0.6l-3-0.7l-3-0.8l-3-0.9c-2-0.6-4-1.2-5.9-1.9
		c-2-0.7-3.9-1.3-5.9-2c-3.9-1.4-7.7-2.9-11.6-4.4c-3.8-1.5-7.7-3-11.5-4.5l-0.1,0l-0.1,0c-2.8-1.3-5.5-2.6-8.3-3.9
		c-2.8-1.3-5.6-2.6-8.4-3.8c-2.8-1.2-5.6-2.4-8.4-3.6c-2.8-1.2-5.7-2.3-8.5-3.2c-0.7-0.2-1.4-0.4-2.1-0.7l-1.1-0.3
		c-0.3-0.1-0.7-0.1-1-0.2c-1.4-0.3-2.9-0.4-4.4-0.4c-2.9,0-5.8,0.7-8.4,2c-2.6,1.4-4.9,3.4-6.8,5.7c-0.9,1.2-1.8,2.4-2.6,3.7
		C555.7,207,555,208.4,554.3,209.8z"/>
</g>
<g>
	<path fill="#FFFFFF" d="M554.3,209.8c0,0-7.7-18-28.3-17.1c-8.7,0-24.5,9.1-44.2,17.1c-10.4,3.4-24.5,8.1-39.8,10.9"/>
	<path d="M554.3,209.8c-0.8-1.5-1.8-2.9-2.8-4.3c-1-1.4-2.2-2.6-3.4-3.8c-2.5-2.3-5.3-4.2-8.4-5.6c-1.5-0.7-3.1-1.2-4.7-1.6
		c-1.6-0.4-3.3-0.6-4.9-0.7c-1.7-0.1-3.3,0-5,0.1c-1.5,0.1-3.2,0.5-4.8,1c-3.2,1-6.3,2.3-9.5,3.6c-3.1,1.4-6.3,2.8-9.4,4.2
		c-6.3,2.8-12.6,5.7-19,8.2l-0.1,0l0,0c-3.3,1-6.6,2.1-9.9,3c-1.7,0.5-3.3,1-5,1.4c-1.7,0.5-3.3,0.9-5,1.3c-1.7,0.4-3.3,0.9-5,1.2
		c-1.7,0.4-3.4,0.8-5.1,1.1l-2.5,0.5c-0.9,0.1-1.7,0.3-2.6,0.4l-5.1,0.7l5-1.3c0.8-0.2,1.7-0.4,2.5-0.7l2.5-0.7
		c1.7-0.4,3.3-1,4.9-1.4c1.7-0.5,3.3-1,4.9-1.5c1.6-0.5,3.3-1.1,4.9-1.6c1.6-0.5,3.3-1.1,4.9-1.6l9.8-3.3l-0.1,0
		c6.3-2.7,12.6-5.5,18.8-8.4c3.1-1.4,6.3-2.8,9.5-4.2c3.2-1.3,6.5-2.6,9.9-3.5c1.7-0.5,3.4-0.8,5.3-1c1.7-0.1,3.5,0,5.3,0.1
		c1.8,0.2,3.5,0.5,5.2,1c1.7,0.5,3.4,1.2,5,2c3.2,1.6,6,3.8,8.3,6.4c1.2,1.3,2.2,2.7,3.2,4.1C552.8,206.6,553.6,208.2,554.3,209.8z"
		/>
</g>
<g>
	<path fill="#EC008C" d="M541.6,233.1c0,0,8.3-8.6,26.2,0"/>
	<path d="M541.5,233c0,0,0-0.1,0.2-0.3c0.1-0.2,0.3-0.5,0.5-0.8c0.5-0.7,1.3-1.5,2.5-2.4c0.6-0.4,1.3-0.8,2-1.1
		c0.7-0.4,1.6-0.6,2.4-0.9c0.4-0.1,0.9-0.2,1.3-0.3c0.5-0.1,0.9-0.2,1.4-0.2c0.9,0,1.9-0.1,2.8,0c0.9,0.1,1.9,0.2,2.8,0.4
		c0.9,0.2,1.8,0.4,2.6,0.7c0.8,0.3,1.6,0.6,2.3,0.9c0.7,0.3,1.3,0.7,1.9,1.1c0.6,0.3,1.1,0.7,1.5,1.1c0.4,0.3,0.8,0.7,1.1,0.9
		c0.3,0.3,0.5,0.5,0.7,0.6c0.2,0.2,0.2,0.2,0.2,0.2l-0.1,0.2c0,0-0.4-0.2-1.1-0.5c-0.7-0.3-1.7-0.7-2.9-1.1c-0.6-0.2-1.3-0.4-2-0.7
		c-0.7-0.2-1.5-0.4-2.2-0.6c-0.8-0.2-1.6-0.3-2.4-0.5c-0.8-0.2-1.7-0.2-2.5-0.3c-0.9-0.1-1.7,0-2.5,0c-0.8,0-1.7,0.1-2.5,0.2
		c-0.8,0.2-1.6,0.3-2.2,0.5c-0.7,0.2-1.4,0.5-2,0.7c-0.6,0.3-1.1,0.5-1.6,0.8c-0.5,0.2-0.8,0.5-1.1,0.7c-0.6,0.4-0.9,0.7-0.9,0.7
		L541.5,233z"/>
</g>
<g>
	<path fill="#FFFFFF" d="M552.8,216.4c0,0-8.9-19-50.7-7.8"/>
	<path d="M552.8,216.4c0,0-0.1-0.2-0.4-0.5c-0.2-0.3-0.6-0.7-1.2-1.3c-0.3-0.3-0.6-0.5-0.9-0.8c-0.3-0.3-0.7-0.6-1.1-0.9
		c-0.4-0.3-0.9-0.6-1.3-0.9c-0.5-0.3-1-0.6-1.5-0.9c-1.1-0.7-2.3-1.1-3.6-1.7c-0.7-0.3-1.4-0.5-2.1-0.7c-0.4-0.1-0.7-0.2-1.1-0.4
		c-0.4-0.1-0.7-0.2-1.1-0.3c-0.7-0.2-1.5-0.4-2.3-0.6c-0.8-0.1-1.6-0.2-2.4-0.4c-1.6-0.3-3.3-0.4-4.9-0.5l-1.2-0.1
		c-0.4,0-0.8,0-1.2,0c-0.8,0-1.7,0-2.5,0c-1.6,0-3.3,0.1-4.8,0.2c-1.6,0.1-3.1,0.1-4.5,0.4c-1.4,0.2-2.8,0.3-4.1,0.4
		c-0.6,0-1.2,0.1-1.8,0.2c-0.6,0.1-1.1,0.2-1.6,0.2c-1,0.2-1.9,0.3-2.7,0.4c-1.5,0.2-2.3,0.3-2.3,0.3s0.8-0.3,2.2-0.8
		c0.7-0.2,1.6-0.6,2.6-0.9c1-0.3,2.1-0.8,3.4-1c1.3-0.3,2.6-0.6,4.1-0.9c0.7-0.1,1.5-0.3,2.2-0.4c0.8-0.1,1.6-0.2,2.4-0.3
		c1.6-0.2,3.3-0.5,5-0.4c0.9,0,1.7,0,2.6-0.1c0.4,0,0.9,0,1.3,0l1.3,0.1c1.7,0.2,3.5,0.2,5.2,0.6c0.9,0.2,1.7,0.3,2.5,0.5
		c0.8,0.2,1.6,0.5,2.4,0.7c0.4,0.1,0.8,0.2,1.2,0.4c0.4,0.2,0.7,0.3,1.1,0.5c0.7,0.3,1.5,0.6,2.1,1c1.3,0.8,2.6,1.4,3.6,2.3
		c0.5,0.4,1,0.8,1.5,1.2c0.4,0.4,0.9,0.8,1.2,1.2c0.3,0.4,0.7,0.8,1,1.1c0.3,0.4,0.5,0.7,0.7,1c0.4,0.6,0.7,1.2,0.9,1.5
		C552.7,216.2,552.8,216.4,552.8,216.4z"/>
</g>
<g>
	<path fill="#FFFFFF" d="M538.4,30c0,0-32.2-34.5-79.9-21.7C432.1,15,441.4,29,407.6,37.6c-8.9,0.8-19,3.2-31.5-2.7
		c1.5,22.3,1.2,114.7-4.2,199.3c7.9-0.7,53.3-10.5,53.3-10.5"/>
	<path d="M538.3,30.1c-1.8-0.4-3.1-1.1-4.3-2c-1.2-0.9-2.3-1.9-3.5-2.8c-2.4-1.8-4.9-3.5-7.4-5.1c-2.5-1.6-5.2-3-7.8-4.4
		c-2.7-1.3-5.4-2.5-8.2-3.6c-2.8-1-5.6-2-8.5-2.7c-1.4-0.4-2.9-0.7-4.4-1c-1.5-0.2-2.9-0.6-4.4-0.8l-2.2-0.3
		c-0.7-0.1-1.5-0.1-2.2-0.2c-1.5-0.2-3-0.2-4.5-0.3c-1.5-0.1-3,0-4.5,0c-1.5,0-3,0.2-4.5,0.3c-1.5,0.2-3,0.3-4.5,0.5
		c-1.5,0.3-3,0.5-4.4,0.8l-4.4,1l-4.4,1.3c-1.4,0.5-2.8,1-4.1,1.6c-1.3,0.7-2.7,1.2-3.9,2.1c-1.3,0.7-2.4,1.7-3.6,2.6
		c-1.1,1-2.2,2-3.3,3c-2.2,2.1-4.2,4.4-6.6,6.4c-2.4,2-4.9,3.9-7.7,5.3l-2.1,1.1l-2.1,0.9l-2.1,0.9l-2.2,0.8
		c-2.9,1.1-5.9,1.8-8.8,2.6l0,0l0,0c-2.6,0.2-5.3,0.6-8,0.8c-2.7,0.2-5.4,0.4-8.1,0.2c-0.7,0-1.3-0.1-2-0.1c-0.7,0-1.3-0.2-2-0.2
		c-0.7-0.1-1.3-0.2-2-0.3c-0.7-0.1-1.3-0.3-2-0.4c-0.7-0.1-1.3-0.3-2-0.5c-0.6-0.2-1.3-0.4-1.9-0.6c-0.6-0.2-1.3-0.4-1.9-0.7
		l-1.9-0.8l0.7-0.5c0.2,4.2,0.4,8.3,0.6,12.5c0.1,4.2,0.2,8.3,0.3,12.5c0.1,4.2,0.2,8.3,0.2,12.5l0.2,12.5c0.1,8.3,0,16.6,0,24.9
		c0,8.3-0.2,16.6-0.3,24.9c0,4.2-0.2,8.3-0.3,12.5l-0.3,12.5l-0.4,12.5l-0.5,12.5l-0.6,12.5c-0.1,2.1-0.2,4.2-0.3,6.2l-0.4,6.2
		l-1.6,24.9l-1.3-1.2l3.3-0.4c1.1-0.1,2.2-0.3,3.3-0.5c2.2-0.4,4.5-0.7,6.7-1.1c4.5-0.8,8.9-1.6,13.4-2.4l26.7-5l0.1,0.3
		c-4.4,1.1-8.8,2.1-13.2,3.1c-4.4,1-8.8,2.1-13.3,3c-4.4,1-8.9,1.9-13.3,2.9c-2.2,0.5-4.5,0.9-6.7,1.3c-1.1,0.2-2.2,0.5-3.4,0.6
		l-3.4,0.5l-1.3,0.2l0.1-1.4l1.1-24.9c0.4-8.3,0.7-16.6,1-24.9l0.5-12.4l0.4-12.5c0.3-8.3,0.7-16.6,0.9-24.9l0.7-24.9l0.5-24.9
		l0.2-12.5c0-4.2,0.1-8.3,0.1-12.5c0-4.2,0-8.3-0.1-12.5c-0.1-4.1-0.3-8.3-0.4-12.4l0-0.8l0.7,0.3l1.8,0.8c0.6,0.3,1.2,0.5,1.8,0.7
		c0.6,0.2,1.2,0.5,1.9,0.6c0.6,0.2,1.3,0.4,1.9,0.5c0.6,0.1,1.3,0.3,1.9,0.4c0.7,0.1,1.3,0.3,2,0.3c0.7,0.1,1.3,0.2,2,0.2
		c0.7,0,1.3,0.1,2,0.1c2.6,0.1,5.3,0,7.9-0.3c2.6-0.3,5.3-0.6,8-0.9l-0.1,0c2.9-0.9,5.8-1.7,8.6-2.8l2.1-0.8l2-1l2-1l2-1.1
		c2.6-1.5,5-3.3,7.2-5.3c2.2-2,4.2-4.3,6.3-6.5c1-1.1,2.2-2.2,3.4-3.2c1.2-1,2.4-2,3.8-2.8c1.3-0.9,2.7-1.6,4.1-2.3
		c1.4-0.7,2.9-1.2,4.4-1.8l4.4-1.4c1.6-0.4,3-0.8,4.5-1.2c1.5-0.3,3-0.6,4.6-0.9c1.5-0.2,3.1-0.4,4.6-0.6c1.5-0.1,3.1-0.3,4.6-0.4
		c1.6,0,3.1-0.2,4.7-0.1c1.6,0,3.1,0,4.7,0.2c0.8,0.1,1.6,0.1,2.3,0.2l2.3,0.3c1.6,0.1,3.1,0.5,4.6,0.7c1.5,0.3,3.1,0.6,4.6,1
		c3,0.7,6,1.7,8.9,2.7c2.9,1.1,5.8,2.3,8.6,3.7c2.8,1.4,5.5,2.9,8.1,4.6c2.6,1.7,5.2,3.5,7.6,5.4c1.2,1,2.4,1.9,3.5,3
		c1.1,1.1,2,2.5,2.4,4.3L538.3,30.1z"/>
</g>
<g>
	<path fill="#FFFFFF" d="M538.4,29.3c0,0,23-39.9,75-23.9c26.7,10.9,29.7,22.6,58.3,27.3c8.9,0.8,20.5,4.9,33-1
		c-1.5,22.3-5.2,119.2,0.2,203.9c-16.8-1.5-23.2-3.7-23.2-3.7"/>
	<path d="M538.3,29.2c0.4-1.9,1.3-3.5,2.3-5c1-1.5,2.2-2.9,3.4-4.2c1.2-1.3,2.5-2.6,3.8-3.8c1.3-1.2,2.7-2.4,4.1-3.5
		c1.4-1.1,2.9-2.2,4.4-3.1c1.5-1,3.1-1.9,4.7-2.7c0.8-0.4,1.6-0.8,2.4-1.2l2.5-1.1c1.7-0.7,3.4-1.3,5.1-1.8c0.9-0.3,1.7-0.5,2.6-0.7
		c0.9-0.2,1.8-0.5,2.7-0.6l2.7-0.5c0.9-0.2,1.8-0.2,2.7-0.4l1.4-0.2l1.4-0.1l2.7-0.2c1.8,0,3.6-0.1,5.4,0.1l2.7,0.1l2.7,0.3
		c1.8,0.2,3.6,0.5,5.3,0.8c1.8,0.3,3.5,0.8,5.3,1.1c1.7,0.5,3.5,1,5.2,1.5l0.1,0l0.1,0c1.9,0.9,3.8,1.7,5.7,2.6
		c1.9,0.9,3.7,1.8,5.5,2.9c1.8,1,3.6,2.1,5.4,3.1c1.7,1.1,3.5,2.2,5.2,3.4l5.1,3.5c1.7,1.1,3.4,2.3,5.1,3.3c0.9,0.5,1.7,1.1,2.6,1.5
		l2.7,1.4l2.8,1.3c0.9,0.4,1.9,0.8,2.8,1.1l1.4,0.6l1.4,0.5c1,0.3,1.9,0.6,2.9,0.9c2,0.5,3.9,1.1,5.9,1.4l3,0.6c1,0.2,2,0.2,3,0.4
		l6.1,1c2,0.3,4,0.6,6.1,0.7c2,0.1,4.1,0.2,6.1,0c2-0.2,4-0.4,6-1c2-0.5,3.8-1.3,5.7-2.1l0.9-0.4l0,1c-0.2,4.2-0.4,8.5-0.5,12.7
		l-0.3,12.7c-0.1,4.2-0.1,8.5-0.2,12.7l-0.2,12.7l-0.2,25.5c0,4.2,0,8.5,0,12.7l0,12.7l0,6.4l0.1,6.4l0.1,12.7l0.1,12.7l0.2,12.7
		l0.2,12.7l0.1,6.4l0.2,6.4l0.8,25.5l0,1l-0.9-0.1l-5.9-0.8l-2.9-0.4c-1-0.1-2-0.3-2.9-0.5l-5.8-1.1c-0.5-0.1-1-0.2-1.4-0.3
		l-1.4-0.4c-1-0.2-1.9-0.5-2.8-0.8l0.1-0.3c0.9,0.3,1.9,0.5,2.9,0.6l1.4,0.3c0.5,0.1,1,0.2,1.4,0.3l5.8,0.8c1,0.2,1.9,0.2,2.9,0.3
		l2.9,0.3l5.8,0.5l-0.9,0.9l-1.8-25.5l-0.4-6.4l-0.3-6.4l-0.5-12.8l-0.5-12.8l-0.2-12.8l-0.1-12.8l-0.1-6.4l0-6.4l0.1-12.8
		c0.1-4.3,0.1-8.5,0.2-12.8c0.2-8.5,0.4-17,0.7-25.5l0.5-12.7c0.2-4.2,0.4-8.5,0.6-12.7l0.7-12.7l0.9-12.7l0.9,0.6
		c-1.9,0.8-3.9,1.6-5.9,2c-2,0.5-4.1,0.8-6.2,1c-2.1,0.2-4.2,0.1-6.2,0c-2.1-0.2-4.1-0.4-6.2-0.7l-6.1-0.9c-1-0.2-2-0.2-3.1-0.4
		l-3-0.5c-2-0.3-4-0.9-6.1-1.3c-1-0.2-2-0.6-3-0.8l-1.5-0.4l-1.5-0.5c-1-0.4-2-0.7-2.9-1.1l-2.9-1.2l-2.8-1.4
		c-0.9-0.5-1.8-1-2.7-1.5c-1.8-1-3.6-2.1-5.3-3.2l-5.2-3.3c-1.7-1.1-3.5-2.1-5.2-3.2c-1.8-1-3.5-2-5.3-3c-1.8-1-3.6-1.8-5.5-2.7
		c-1.8-0.9-3.7-1.6-5.6-2.4l0.1,0l-5-1.4c-1.7-0.4-3.4-0.8-5.1-1.1c-1.7-0.3-3.4-0.6-5.1-0.7l-2.6-0.3l-2.6-0.1
		c-1.7-0.1-3.5,0-5.2,0l-2.6,0.2l-1.3,0.1l-1.3,0.2c-0.9,0.1-1.7,0.2-2.6,0.4l-2.5,0.5c-0.8,0.2-1.7,0.4-2.5,0.6l-1.3,0.3l-1.2,0.4
		c-1.7,0.5-3.3,1.1-4.9,1.7l-2.4,1c-0.8,0.4-1.5,0.7-2.3,1.1c-1.5,0.8-3,1.6-4.5,2.5c-1.5,0.9-2.9,1.9-4.3,2.9c-1.4,1-2.7,2.1-4,3.2
		c-1.3,1.1-2.6,2.3-3.8,3.6c-1.2,1.2-2.3,2.6-3.5,3.8c-1.2,1.3-2.4,2.5-3.9,3.7L538.3,29.2z"/>
</g>
<g>
	<g>
		<g>
			<path fill="#00AEEF" d="M32.3,257.7c-1.8,0.8-2.9,0.4-3.5-1.4L0.2,162.6c-0.5-1.8,0-3.1,1.7-3.9l4-1.8c4-1.8,7.7-2.2,11.1-1
				c2.1-2.6,4.3-4.9,6.5-6.7c1.9-1.6,4.3-3.3,7.3-4.9l10.1-4.7c7.9-3.4,15.5-3.9,22.8-1.4c4.2-7.9,10.1-13.8,17.7-17.5l8.6-4
				c8.7-4.1,17.3-4.2,25.7-0.4c8.6,4.3,14.3,11,17,20.1l14.1,45.9c1.7,5.5,1.5,10.8-0.7,16.1c-2.1,5.2-5.7,9-10.5,11.3l-3.8,1.8
				c-0.7,0.3-1.5,0.4-2.3,0.2c-0.8-0.2-1.3-0.7-1.6-1.5l-19.2-62.6c-0.7-2.4-2.1-4.2-4.3-5.2c-2.2-1-4.5-1.1-7-0.2l-8.5,4
				c-2.1,1.3-3.7,3.2-4.8,5.7c-1.1,2.6-1.4,5.1-0.7,7.5l14.1,45.7c1.7,5.5,1.5,10.8-0.7,16.1c-2.1,5.2-5.6,9-10.5,11.3l-3.8,1.8
				c-0.7,0.3-1.4,0.4-2.1,0.1c-0.7-0.3-1.2-0.8-1.4-1.5l-19.3-62.3c-0.6-2.3-2-4-4.2-5.2c-2.1-1.1-4.3-1.3-6.6-0.5l-10.3,4.8
				c-2,1.1-3.5,2.9-4.5,5.4c-1,2.5-1.4,4.9-1,7.2l14.2,46.5c1.7,5.5,1.5,10.9-0.6,16.1c-2.1,5.2-5.6,9-10.5,11.2L32.3,257.7z"/>
			<path fill="#00AEEF" d="M111,91.6c-1-1.4-1-2.6,0.2-3.7l3-3.2c3.4-3.7,7.5-5.6,12.3-5.7c4.8-0.1,8.7,1.6,11.7,5.2l33.3,39.3
				l4.3-57c0.4-5.2,2.4-9.7,6.1-13.6c3.7-3.9,7.9-5.8,12.4-5.8l3.9,0c1.6-0.1,2.2,0.8,2,2.6l-10.9,144.1c-0.4,5.4-2.3,10.1-5.9,13.8
				c-3.6,3.8-7.8,5.8-12.6,5.9l-3.6-0.1c-1.7,0-2.5-0.8-2.4-2.5l4.1-54.8c-2.6-0.9-4.6-2.4-6.2-4.3L111,91.6z"/>
		</g>
		<g>
			<path fill="#FFFFFF" d="M32.3,257.7c-1.8,0.8-2.9,0.4-3.5-1.4L0.2,162.6c-0.5-1.8,0-3.1,1.7-3.9l4-1.8c4-1.8,7.7-2.2,11.1-1
				c2.1-2.6,4.3-4.9,6.5-6.7c1.9-1.6,4.3-3.3,7.3-4.9l10.1-4.7c7.9-3.4,15.5-3.9,22.8-1.4c4.2-7.9,10.1-13.8,17.7-17.5l8.6-4
				c8.7-4.1,17.3-4.2,25.7-0.4c8.6,4.3,14.3,11,17,20.1l14.1,45.9c1.7,5.5,1.5,10.8-0.7,16.1c-2.1,5.2-5.7,9-10.5,11.3l-3.8,1.8
				c-0.7,0.3-1.5,0.4-2.3,0.2c-0.8-0.2-1.3-0.7-1.6-1.5l-19.2-62.6c-0.7-2.4-2.1-4.2-4.3-5.2c-2.2-1-4.5-1.1-7-0.2l-8.5,4
				c-2.1,1.3-3.7,3.2-4.8,5.7c-1.1,2.6-1.4,5.1-0.7,7.5l14.1,45.7c1.7,5.5,1.5,10.8-0.7,16.1c-2.1,5.2-5.6,9-10.5,11.3l-3.8,1.8
				c-0.7,0.3-1.4,0.4-2.1,0.1c-0.7-0.3-1.2-0.8-1.4-1.5l-19.3-62.3c-0.6-2.3-2-4-4.2-5.2c-2.1-1.1-4.3-1.3-6.6-0.5l-10.3,4.8
				c-2,1.1-3.5,2.9-4.5,5.4c-1,2.5-1.4,4.9-1,7.2l14.2,46.5c1.7,5.5,1.5,10.9-0.6,16.1c-2.1,5.2-5.6,9-10.5,11.2L32.3,257.7z"/>
			<path fill="#FFFFFF" d="M111,91.6c-1-1.4-1-2.6,0.2-3.7l3-3.2c3.4-3.7,7.5-5.6,12.3-5.7c4.8-0.1,8.7,1.6,11.7,5.2l33.3,39.3
				l4.3-57c0.4-5.2,2.4-9.7,6.1-13.6c3.7-3.9,7.9-5.8,12.4-5.8l3.9,0c1.6-0.1,2.2,0.8,2,2.6l-10.9,144.1c-0.4,5.4-2.3,10.1-5.9,13.8
				c-3.6,3.8-7.8,5.8-12.6,5.9l-3.6-0.1c-1.7,0-2.5-0.8-2.4-2.5l4.1-54.8c-2.6-0.9-4.6-2.4-6.2-4.3L111,91.6z"/>
		</g>
	</g>
	<g>
		<g>
			<path fill="#00AEEF" stroke="#FFFFFF" stroke-width="2.8347" stroke-miterlimit="10" d="M281.4,28.7c10.7-0.8,20.5,1.3,29.2,6.1
				c8.8,4.9,15.4,11.9,19.8,21.1c4.4,9.2,6.1,19.2,4.9,30c-1.2,10.8-5.1,20.9-11.8,30.4c14.7,9.4,22.3,22.9,22.7,40.7
				c0.7,16.7-4.8,31.9-16.3,45.5c-12.2,14.8-27.4,22.8-45.6,24.1l-54.7,4c-7.5,0.5-13.7-1.6-18.7-6.6c-4.9-4.9-7.1-11.2-6.6-18.8
				l9.7-144.9c0.5-7.6,3.6-14.2,9.2-19.7c5.6-5.5,12.2-8.6,19.7-9.1L281.4,28.7z M239.6,219.4c0.6-7.1,3-12.9,7.2-17.5
				c4.3-4.6,9.9-7.7,17-9.1c3.4-0.8,11-1.8,23-3c7.1-0.7,13-3.8,17.7-9.3c4.6-5.5,6.4-11.8,5.4-18.9c-0.6-5.4-2.7-9.5-6.5-12.5
				s-8.4-4.3-13.9-3.8l-45.2,3.3L239.6,219.4z M284.3,107.6c5.2-2.5,9.2-6.2,12-11c2.8-4.8,3.8-9.9,3.1-15.2
				c-0.6-5.4-2.8-9.5-6.7-12.5c-3.9-3-8.5-4.2-13.9-3.8l-29,2.1l-4.8,71.7c2.7-17.3,12.4-26.9,29-28.6
				C278.3,109.9,281.7,109,284.3,107.6z"/>
		</g>
		<g>
			<path fill="#FFFFFF" d="M281.4,28.7c10.7-0.8,20.5,1.3,29.2,6.1c8.8,4.9,15.4,11.9,19.8,21.1c4.4,9.2,6.1,19.2,4.9,30
				c-1.2,10.8-5.1,20.9-11.8,30.4c14.7,9.4,22.3,22.9,22.7,40.7c0.7,16.7-4.8,31.9-16.3,45.5c-12.2,14.8-27.4,22.8-45.6,24.1
				l-54.7,4c-7.5,0.5-13.7-1.6-18.7-6.6c-4.9-4.9-7.1-11.2-6.6-18.8l9.7-144.9c0.5-7.6,3.6-14.2,9.2-19.7c5.6-5.5,12.2-8.6,19.7-9.1
				L281.4,28.7z M239.6,219.4c0.6-7.1,3-12.9,7.2-17.5c4.3-4.6,9.9-7.7,17-9.1c3.4-0.8,11-1.8,23-3c7.1-0.7,13-3.8,17.7-9.3
				c4.6-5.5,6.4-11.8,5.4-18.9c-0.6-5.4-2.7-9.5-6.5-12.5s-8.4-4.3-13.9-3.8l-45.2,3.3L239.6,219.4z M284.3,107.6
				c5.2-2.5,9.2-6.2,12-11c2.8-4.8,3.8-9.9,3.1-15.2c-0.6-5.4-2.8-9.5-6.7-12.5c-3.9-3-8.5-4.2-13.9-3.8l-29,2.1l-4.8,71.7
				c2.7-17.3,12.4-26.9,29-28.6C278.3,109.9,281.7,109,284.3,107.6z"/>
		</g>
	</g>
</g>
<g>
	<g>
		<g>
			<path fill="#00AEEF" d="M521.7,114.2c-1.5,39.1-28.7,72.4-69.8,69.9c-36.1-2.2-65.9-30.7-67.5-67.2
				c-1.8-39.6,32.3-67.4,69.7-69.7C496.5,44.6,523.3,72.1,521.7,114.2z M405.2,116.2c-0.7,27.7,18.3,52.2,47,53.6
				c31.3,1.5,46.7-27.8,49.2-55.1c2.9-30.7-14.3-55.9-47.2-53.5C424.4,63.4,405.9,87.2,405.2,116.2z"/>
		</g>
	</g>
	<g>
		<g>
			<path fill="#EC008C" d="M521.7,114.2c-1.5,39.1-28.7,72.4-69.8,69.9c-36.1-2.2-65.9-30.7-67.5-67.2
				c-1.8-39.6,32.3-67.4,69.7-69.7C496.5,44.6,523.3,72.1,521.7,114.2z M405.2,116.2c-0.7,27.7,18.3,52.2,47,53.6
				c31.3,1.5,46.7-27.8,49.2-55.1c2.9-30.7-14.3-55.9-47.2-53.5C424.4,63.4,405.9,87.2,405.2,116.2z"/>
		</g>
	</g>
</g>
<g>
	<g>
		<g>
			<path fill="#00AEEF" d="M525.7,117.2c-1.5,39.1-28.7,72.4-69.8,69.9c-36.1-2.2-65.9-30.7-67.5-67.2
				c-1.7-39.6,32.3-67.4,69.7-69.7C500.5,47.6,527.3,75.1,525.7,117.2z M409.2,119.2c-0.7,27.7,18.3,52.2,47,53.6
				c31.3,1.5,46.7-27.7,49.2-55.1c2.9-30.7-14.3-55.9-47.2-53.5C428.4,66.4,409.9,90.3,409.2,119.2z"/>
		</g>
	</g>
	<g>
		<g>
			<path fill="#00AEEF" d="M525.7,117.2c-1.5,39.1-28.7,72.4-69.8,69.9c-36.1-2.2-65.9-30.7-67.5-67.2
				c-1.7-39.6,32.3-67.4,69.7-69.7C500.5,47.6,527.3,75.1,525.7,117.2z M409.2,119.2c-0.7,27.7,18.3,52.2,47,53.6
				c31.3,1.5,46.7-27.7,49.2-55.1c2.9-30.7-14.3-55.9-47.2-53.5C428.4,66.4,409.9,90.3,409.2,119.2z"/>
		</g>
	</g>
</g>
<g>
	<g>
		<g>
			<path fill="#00AEEF" d="M623,43.6c38.4,1.2,68.5,31.1,69.7,69.6c1.2,39.5-29.3,66.1-67.5,67.3c-41.3,1.3-71-28.6-69.7-69.8
				C556.6,72.7,583.8,42.4,623,43.6z M624.1,57.6c-30.2-0.7-48.2,24.9-48.2,53.1c0,29.2,16.9,55.8,48.4,55.7
				c31.1-0.1,51.2-22.5,48.8-53.1C670.8,84.6,655.7,58.2,624.1,57.6z"/>
		</g>
	</g>
	<g>
		<g>
			<path fill="#EC008C" d="M623,43.6c38.4,1.2,68.5,31.1,69.7,69.6c1.2,39.5-29.3,66.1-67.5,67.3c-41.3,1.3-71-28.6-69.7-69.8
				C556.6,72.7,583.8,42.4,623,43.6z M624.1,57.6c-30.2-0.7-48.2,24.9-48.2,53.1c0,29.2,16.9,55.8,48.4,55.7
				c31.1-0.1,51.2-22.5,48.8-53.1C670.8,84.6,655.7,58.2,624.1,57.6z"/>
		</g>
	</g>
</g>
<g>
	<g>
		<path fill="#00AEEF" d="M622,48.6c38.4,1.2,68.5,31.1,69.7,69.6c1.2,39.5-29.3,66.1-67.5,67.3c-41.3,1.3-71-28.5-69.7-69.8
			C555.6,77.7,582.8,47.4,622,48.6z M623.1,62.6c-30.2-0.7-48.2,24.9-48.2,53.1c0,29.2,16.9,55.8,48.4,55.7
			c31.1-0.1,51.2-22.5,48.8-53.1C669.8,89.6,654.7,63.2,623.1,62.6z"/>
	</g>
</g>
<g>
	<g>
		<path fill="#00AEEF" d="M767.9,208c-0.5,2.5-2.1,3.7-4.7,3.6l-5.6-0.3c-7.4-0.5-13.2-3.4-17.4-8.9c-4.2-5.5-5.5-11.9-4-19.4
			l33.9-164.9c0.2-1.1,0.8-2,1.8-2.7c0.9-0.8,1.8-1.1,2.7-1l6.1,0.4c7.4,0.5,13.2,3.4,17.3,8.9c4.1,5.5,5.4,11.9,3.8,19.3l-9.8,47.5
			l84.4-68.4c1.9-1.5,3.6-1.4,5.3,0.3l3.5,4.3c4.5,5.5,6.1,11.8,4.9,19c-1.3,7.2-5,13.4-11.3,18.5L826.1,107
			c0,0-17.7,14.5-12.7,10.5l-32.3,26.2L767.9,208z"/>
	</g>
	<g>
		<path fill="#FFFFFF" d="M767.9,208c-0.5,2.5-2.1,3.7-4.7,3.6l-5.6-0.3c-7.4-0.5-13.2-3.4-17.4-8.9c-4.2-5.5-5.5-11.9-4-19.4
			l33.9-164.9c0.2-1.1,0.8-2,1.8-2.7c0.9-0.8,1.8-1.1,2.7-1l6.1,0.4c7.4,0.5,13.2,3.4,17.3,8.9c4.1,5.5,5.4,11.9,3.8,19.3l-9.8,47.5
			l84.4-68.4c1.9-1.5,3.6-1.4,5.3,0.3l3.5,4.3c4.5,5.5,6.1,11.8,4.9,19c-1.3,7.2-5,13.4-11.3,18.5L826.1,107
			c0,0-17.7,14.5-12.7,10.5l-32.3,26.2L767.9,208z"/>
	</g>
</g>
<g>
	<path fill="#EC008C" d="M894,192.9c3.7,5.1-22.3,23.8-26,18.6l-64.6-90.1c-3.7-5.1-2.3-12.4,3.1-16.3l6.5-4.7
		c5.4-3.9,12.7-2.8,16.4,2.3L894,192.9z"/>
</g>
<g>
	<path fill="#EC008C" d="M869.5,211.2c-0.6,0-1-0.1-1.1-0.4l-56.1-78.3c-1.4-2-1.8-4.5-1.1-7.2c0.7-2.7,2.5-5.1,4.9-6.9l6.5-4.7
		c2.2-1.6,4.8-2.5,7.4-2.5c3,0,5.6,1.2,7.2,3.4l56.1,78.3c0.3,0.5,0,1.3-0.3,1.9C890,200.5,874.7,211.2,869.5,211.2z"/>
	<path fill="#FFFFFF" d="M830,112L830,112c2.8,0,5.2,1.1,6.6,3.1l56.1,78.3c0,0,0.1,0.5-0.9,2c-3.9,5.8-17.7,15.1-22.3,15.1
		c-0.4,0-0.5-0.1-0.6-0.1l-56.1-78.3c-1.3-1.8-1.7-4.1-1-6.6c0.7-2.5,2.3-4.8,4.7-6.5l6.5-4.7C825.1,112.9,827.6,112,830,112
		 M830,110.6c-2.6,0-5.4,0.9-7.8,2.6l-6.5,4.7c-5.4,3.9-7.2,10.6-4,15.1l56.1,78.3c0.3,0.5,0.9,0.7,1.7,0.7
		c6.6,0,27.2-15.3,24.3-19.3l-56.1-78.3C836,111.9,833.1,110.6,830,110.6L830,110.6z"/>
</g>
<polyline fill="#FFFFFF" points="868.5,212 868.7,197.9 881.5,202.7 882,188.4 894.4,193.4 900.6,229.4 "/>
<g>
	<g>
		<path fill="#FFFFFF" d="M875.2,204.5c-20-27.9-40-55.7-59.9-83.6c-1.1-1.5-3.5-0.1-2.4,1.4c20,27.9,40,55.7,59.9,83.6
			C873.8,207.4,876.3,206,875.2,204.5L875.2,204.5z"/>
	</g>
</g>
<g>
	<g>
		<path fill="#FFFFFF" d="M888.4,195c-19.8-27.6-39.6-55.3-59.4-82.9c-1.1-1.5-3.5-0.1-2.4,1.4c19.8,27.6,39.6,55.3,59.4,82.9
			C887,197.9,889.5,196.5,888.4,195L888.4,195z"/>
	</g>
</g>
<polygon fill="#EC008C" points="900.6,229.4 898,214.5 895.8,217.1 894.4,218.8 892.6,219.8 890.6,221 888.9,223.1 "/>
<g>
	<g>
		<g>
			<g>
				<path fill="#EC008C" d="M897.1,227c-0.2-0.4-0.2-0.2-0.3-0.2C897.2,227.3,897.1,226.9,897.1,227z"/>
				<path fill="#EC008C" d="M901.2,232.4l-0.2,0c0,0,0.2,0.2,0.4,0.3c0.2,0.2,0.4,0.3,0.4,0.3L901.2,232.4z"/>
				<path fill="#EC008C" d="M904.2,237.9c0.2-0.5-0.1-0.9-0.5-1.5c-0.4-0.5-0.8-1.1-1-1.6l0-0.2l-0.6-0.2
					C902.8,235.6,904,236.9,904.2,237.9z"/>
				<path fill="#EC008C" d="M903.7,241.8c0.3-0.3,0.5,0.5-0.1-0.8c0,0.1,0,0.1,0,0.2C903.6,241.3,903.6,241.5,903.7,241.8z"/>
				<path fill="#EC008C" d="M903.5,241.2C903.3,240.6,903.4,241.7,903.5,241.2L903.5,241.2z"/>
				<path fill="#EC008C" d="M904.4,243.9l-0.5-0.7c-0.2,0.3-0.1,1-0.3,0.8C904,244.8,904.2,244.5,904.4,243.9z"/>
				<path fill="#EC008C" d="M905.3,244.4l-0.2-0.4C905,244.1,905,244.3,905.3,244.4z"/>
				<path fill="#EC008C" d="M904.6,243.3l0.5,0.8c0.1-0.2,0.4-0.3-0.2-0.4C905.1,243.6,904.8,243.6,904.6,243.3z"/>
				<path fill="#EC008C" d="M904.6,242.7c0.1-0.5,0-1.2,0.6-0.5c-0.3-0.8-0.6-1-0.7-0.9C904.3,241.5,904.3,241.9,904.6,242.7z"/>
				<path fill="#EC008C" d="M905,237.8l-0.1-0.7l-0.5-0.4c0.1,0.1,0.3,0.4,0.3,0.7C904.9,237.6,904.9,237.8,905,237.8z"/>
				<path fill="#EC008C" d="M904.7,249c0.3,0,0.6-0.4,0.9-0.6l-0.4-0.5C905.1,248.3,905,248.9,904.7,249z"/>
				<path fill="#EC008C" d="M905.6,248.5c0,0,0.6,0.8,0.5,0.8C906.1,248.4,905.8,248.3,905.6,248.5z"/>
				<path fill="#EC008C" d="M906.4,244.1c0,0-0.3-0.3-0.6-0.6c-0.3-0.3-0.6-0.6-0.6-0.6s0.3,0.4,0.6,0.7c0.3,0.4,0.6,0.7,0.6,0.7
					L906.4,244.1z"/>
				<polygon fill="#EC008C" points="904.8,252.4 904.1,252 905.1,252.7 				"/>
				<path fill="#EC008C" d="M904.8,254.5c-0.5-0.3-1,0.6-1.3,0.2c0,0.6,0.5,1,0.9,1.4C904.2,255.7,904.3,255.2,904.8,254.5z"/>
				<path fill="#EC008C" d="M905,256.9c-0.1-0.2-0.3-0.5-0.6-0.7C904.5,256.4,904.7,256.7,905,256.9z"/>
				<path fill="#EC008C" d="M906.1,250.8c-0.2,0.1-0.6,0.3-0.7,0.8l0.7-0.5C906.1,251.1,906.1,250.9,906.1,250.8z"/>
				<path fill="#EC008C" d="M906.2,251.1L906.2,251.1c0,0.4,0,0.7,0,0.8C906.2,251.8,906.2,251.6,906.2,251.1z"/>
				<path fill="#EC008C" d="M906.1,250.7C906.1,250.7,906.1,250.8,906.1,250.7C906.2,250.8,906.2,250.7,906.1,250.7z"/>
				<path fill="#EC008C" d="M906.4,246.7c0.4,0.4,1.1,1.4,1.4,0.2C907.3,246.6,907.1,247.3,906.4,246.7z"/>
				<path fill="#EC008C" d="M907,250.1l0.1-1c-0.2,0.1-0.4,0.3-0.7,0.1L907,250.1z"/>
				<polygon fill="#EC008C" points="907.3,250.5 907,250.1 907,250.5 				"/>
				<path fill="#EC008C" d="M905.9,255.3c0.4,0.4,0.4,0.8,0.4,1.3c0.2-0.5,0.3-1.1,0.3-1.6C906.4,254.9,905.9,254.7,905.9,255.3z"/>
				<path fill="#EC008C" d="M906.2,253.3C906.2,253.3,906.2,253.3,906.2,253.3C906.3,253.3,906.3,253.2,906.2,253.3z"/>
				<path fill="#EC008C" d="M905.7,261.4c0.1,0,0.1,0,0.2-0.1C905.8,261.4,905.8,261.3,905.7,261.4L905.7,261.4z"/>
				<path fill="#EC008C" d="M906.8,254.9c0.2-0.4,0-0.6-0.3-0.9c0.1,0.3,0.1,0.6,0.1,1C906.7,255,906.8,255,906.8,254.9z"/>
				<path fill="#EC008C" d="M905.2,258.2c0.2-0.2,0.4-0.4,0.6-0.7C905.5,257.7,905,258.1,905.2,258.2z"/>
				<path fill="#EC008C" d="M906,253.5C906,253.5,906,253.5,906,253.5C905.8,253.6,905.9,253.6,906,253.5z"/>
				<path fill="#EC008C" d="M906,253.5c0.1,0.2,0.3,0.3,0.5,0.5c-0.1-0.2-0.1-0.5-0.3-0.6C906.2,253.4,906.1,253.5,906,253.5z"/>
				<path fill="#EC008C" d="M911,263.6c-0.1-0.1,0-0.4-0.3-0.8c-0.2-0.5,0-1,0.4-1.5c-0.5-1-3.5-0.5-5.3,0.1
					c0.4,0.1,0.7,0.1,1.1,1.1c0.6-0.3,1.4-2,2.1-1.1c0.3,1.3-0.4,1-1,1.6c0.6-0.2,1,0.3,1.4,0.8c0.2,0.3,0.4,0.5,0.7,0.7
					c0.1,0.1,0.3,0.2,0.5,0.3c0.1,0.1,0.1,0,0.1,0c0,0,0.2-1.2,0-1.2C911,263.5,910.9,263.9,911,263.6z"/>
				<path fill="#EC008C" d="M906.3,259.6c0,0,0-0.4,0-0.4c-0.2,0.4-0.6,0.7-1.4,1.2c0.3,0.6,0.6,0.8,0.9,0.8l0.5-1.8L906.3,259.6z"
					/>
				<path fill="#EC008C" d="M906.4,257.6c0.9,0.3,1.2,1.2,2.2,0.6c0-1.2-0.7-0.8-1.1-1.5c0.1,1.8-0.5-0.5-1.1,0.8
					c-0.1-0.4-0.1-0.7-0.1-1c-0.1,0.3-0.3,0.6-0.5,0.9c0,0,0,0,0.1,0l0,0c0,0,0,0,0,0c0.1-0.1,0.2-0.1,0.1,0c0,0,0,0,0,0
					C906.1,257.5,906.2,257.5,906.4,257.6c-0.2,0.5-0.2,0.1-0.3-0.1c0,0-0.1,0-0.1,0l0,0c0,0,0.1,0.4,0.2,0.9
					c0.1,0.4,0.2,0.9,0.2,0.9C906.4,258.9,906.4,258.4,906.4,257.6z"/>
				<path fill="#EC008C" d="M909.6,247.5c0,0.1-0.1,0.1-0.1,0.1C909.6,247.7,909.6,247.7,909.6,247.5z"/>
				<path fill="#EC008C" d="M909.4,248.4c-0.1-0.1-0.4-0.2-0.5-0.6c0.1-0.4,0.3-0.1,0.6-0.2c-0.3-0.2-0.7-0.8-0.9,0.1l0.1,0.1
					c0,0.8-0.8,2-0.9,1.9C908.4,249.4,908.8,249.1,909.4,248.4z"/>
				<path fill="#EC008C" d="M908.5,253.2l0.5,1.6l0.7-0.9l-0.4,0.1C909.4,253,908.8,253.3,908.5,253.2z"/>
				<polygon fill="#EC008C" points="905.2,261.5 904.2,261.3 905.5,262.2 				"/>
				<polygon fill="#EC008C" points="904.9,263.4 903.9,263.2 904.4,263.8 				"/>
				<path fill="#EC008C" d="M816.7,260.3l-0.4-0.3C816.5,260.1,816.6,260.2,816.7,260.3z"/>
				<path fill="#EC008C" d="M819.2,262.8h0.1C819.2,262.7,819.1,262.7,819.2,262.8z"/>
				<path fill="#EC008C" d="M874.6,287.8c-0.5-1.4-0.9-3.7-0.9-2l0.1,1.6C874.1,287.2,874.4,287.4,874.6,287.8z"/>
				<path fill="#EC008C" d="M841.3,282.3c0,0.1,0.1,0.1,0.1,0.2c0.1,0,0.2,0.1,0.3,0.1c0.2-0.1,0.5-0.3,0.7-0.4
					C842,282.3,841.5,282.5,841.3,282.3z"/>
				<path fill="#EC008C" d="M840.4,282.6l-0.7-0.7C839.9,282,840.1,282.3,840.4,282.6z"/>
				<path fill="#EC008C" d="M802.4,246.9l-0.6-0.2C802.6,247.3,802.3,247,802.4,246.9z"/>
				<path fill="#EC008C" d="M896.3,279.9c-0.8,0-1.2,0.2-1.5,0.4C895.8,280.3,897,280.7,896.3,279.9z"/>
				<path fill="#EC008C" d="M824.7,254.2c-0.4,0-0.8,0.2-1,0.5C824.1,254.7,824.5,254.5,824.7,254.2z"/>
				<path fill="#EC008C" d="M893.7,281.1c0.2,0,0.3,0,0.4,0.1c0.1-0.4,0.3-0.7,0.6-1C894,280.1,893.4,280.1,893.7,281.1z"/>
				<path fill="#EC008C" d="M739.8,234.6c0,0-0.1,0.1-0.1,0.1C739.7,234.7,739.7,234.7,739.8,234.6z"/>
				<path fill="#EC008C" d="M724.5,248.5c0.1-0.2,0.3-0.5,0.4-0.8C724.8,247.8,724.7,248.1,724.5,248.5z"/>
				<path fill="#EC008C" d="M901.8,270.3C901.9,269.9,901.7,270.2,901.8,270.3L901.8,270.3z"/>
				<path fill="#EC008C" d="M906.9,269.9c0.1,0.1,0.2,0.2,0.5,0.3C907.1,270.1,907,270,906.9,269.9z"/>
				<path fill="#EC008C" d="M896.2,290.1C896.2,290.1,896.2,290.1,896.2,290.1C896.3,290.1,896.2,290.1,896.2,290.1z"/>
				<path fill="#EC008C" d="M902.5,269.9c-0.2,0.1-0.4,0.2-0.5,0.3C902.1,270.2,902.3,270.1,902.5,269.9z"/>
				<path fill="#EC008C" d="M902,269.8c0.1-0.1,0.2-0.2,0.3-0.3C902.1,269.4,902,269.4,902,269.8z"/>
				<path fill="#EC008C" d="M901.6,270.8c0.1-0.2,0.2-0.4,0.4-0.5c-0.1,0-0.2,0-0.2,0C901.8,270.4,901.7,270.5,901.6,270.8z"/>
				<path fill="#EC008C" d="M775.5,228.7C775.5,228.7,775.5,228.7,775.5,228.7C775,228.6,775.2,228.6,775.5,228.7z"/>
				<path fill="#EC008C" d="M862.2,295.8C862.2,295.8,862.2,295.8,862.2,295.8C862.2,295.8,862.2,295.8,862.2,295.8L862.2,295.8z"/>
				<path fill="#EC008C" d="M860.6,295.3c0.8,0,1.1,0.2,1.6,0.4l-0.3-0.7L860.6,295.3z"/>
				<path fill="#EC008C" d="M810.5,254.3l0.7,0.9c-1.2-0.8-1.9-1.6-1.3-0.6c0.5-0.3,3.3,3.1,3.8,2.8l0.5,0.6
					c-0.2-0.2-0.2-0.2-0.4-0.3c0.9,1.3,1.1,0.5,2.4,1.9c0.4,0.5,0.7,0.9,0.3,0.6l1.2,1c0.3,0.3,0.2,0.3-0.1,0l1.7,1.6l0,0
					c0.3,0.2,0.9,0.6,1.2,0.8c0.4,0.5-0.3-0.2-0.2,0l1,0.8c0.3,0.5-0.6-0.2-1.2-0.8c0.4,1.3,0.9,0.6,2.4,2.7l-0.9-0.8
					c0.3,0.8,1.1,1.4,1.9,2.5c-0.1-0.3-1.5-2.3-0.5-1.4c0.2,0.3,0.6,0.7,1.2,1.1c-0.1,0.2,0.4,0.6,1.1,1.3l-0.2,0.2
					c0.8,0.6,0.8,0.5,1.3,0.8c0.8,0.8,0.8,1.1,0.8,1.4c1.2,1.3-0.6-1.1,0.9,0.3c1,1.1,1.8,1.7,3.2,2.8c0.7,0.8-0.3,0,0,0.3l0.8,0.5
					c0.2,0.2,0.1,0.2,0,0.2c0.6,0.5,0.2-0.2,1.2,0.6c0.4,0,1.5,2,2.8,2.8c0.2,0.3-0.2,0-0.2,0.2c1.7,1.2,1.4,1,2.9,1.9
					c0,0,0.2,0.3,0.5,0.5c0.2,0.3,0.5,0.5,0.5,0.5c-0.7-0.8,0.5-0.2,1.6,0.4l-0.1-0.1c0,0,0.1-0.2,0.1-0.3c0.1-0.2,0.1-0.4,0.2-0.6
					c0.1-0.4,0.2-0.7,0.3-0.9l2.3,0.1c-0.1,0.5-0.8,1-1.7,1.7c0.2-0.1,0.5-0.2,0.7-0.3c0,0.3-0.1,0.6-0.3,0.8
					c-0.1,0.1-0.2,0.3-0.3,0.4c-0.1,0.1-0.1,0.1-0.1,0.1s0,0,0,0c-0.1,0-0.3-0.1-0.5-0.1c-0.1-0.2-0.3-0.4-0.4-0.6
					c-0.5-0.2-0.9-0.3-1-0.1c0.1,0.1,0.3,0.2,0.5,0.3c-0.1,0-0.2-0.1-0.2,0c0,0.1,0.2,0.1,0.5,0.3l0.1,0.5l0.2,0
					c0,0,0.4,0.4,0.9,0.9c0.5,0.4,0.9,0.8,0.9,0.8c1.6,0.9,3.1,1.3,5.5,2.9c-0.7-0.2-0.3,0.2-0.5,0.4c-0.5-0.7-1.8-1.2-3-2
					c0.6,0.5,0.4,0.5,0.2,0.4l2.3,1.3c-0.2,0.2,0.4,0.5,0.9,0.9c-0.1-0.3,0.3-0.1,0.9,0.2c0.6,0.3,1.4,0.8,1.8,1
					c0,0.2-0.3,0.2-1.4-0.5c1,1,1.9,0.5,2.9,1.5c-0.3-0.2-0.4-0.3-0.5-0.3c0.7,0.3,2.2,1.3,1.8,1.2c0,0-0.3-0.1-0.3-0.1
					c0.9,0.5,2.4,1.2,3.6,1.7c1.2,0.6,2.4,0.8,2.6,0.7c0,0.1-0.4,0.3-0.6,0.4c0,0,1,0,2,0.1c0.2,0,0.5,0,0.7,0
					c0.4-0.4,0.8-1,1.1-1.4c0.6-0.9,1.1-1.5,1.1-1.5c-0.3,0.7-0.6,1.6-0.8,2.6c-0.1,0.2-0.1,0.5-0.2,0.7l0,0.1c0,0.1,0,0.1,0,0.2
					c0,0.2-0.2,0.5-1.1,0.3c0.4,0.2,1,0.4,2.1,0.6c-0.3-0.1-0.7-0.7-0.2-0.6c1.1,0.7,0.8,0.4,2.2,1.1c-0.5-0.2,0.2-0.5,1-0.3
					c-0.1,0.1,0,0.5-0.3,0.5l2.1-0.2c-0.5,0-0.2,0.4,0.3,0.6c-0.2-0.1,1.7,0.3,2.3,0.3c0,0-0.2,0-0.4-0.1c-0.2-0.1-0.4-0.1-0.4-0.1
					c2.3,0.3,2.3-0.5,4.5-0.4c-0.3,0.1-0.7,0.6,0.5,0.7c0.3-0.1,0.8-0.5,1.6-0.8l0.1-0.1c0-0.1,0.1-0.3,0.1-0.4
					c0.1-0.3,0.2-0.6,0.2-0.9c0.2-0.6,0.3-1.2,0.5-1.7c0.3-1,0.6-1.9,1-2.3l0.5,1.1c0,0,0.3-0.4,0.5-0.8c0.3-0.4,0.5-0.8,0.5-0.8
					c-0.1,0.8-0.2,1.8-0.4,3c-0.1,0.6-0.2,1.2-0.3,1.8l-0.1,0.5l-0.1,0.2c0,0.1-0.1,0-0.1,0.1l-0.3,0.2c-0.9,0.4-1.9,0.7-2.7,0.9
					c0.9,0.1,0.2,0.2,1.5,0.1c0.5,0.1-0.7,0.2-1.1,0.3c0,0,0.8,0,1.5,0c0.4,0,0.8-0.1,1-0.1c0.3,0,0.5-0.1,0.5-0.1
					c-0.2-0.3,2.2-0.7,2.1-0.9l-3.2,0.8c-0.2-0.3,1.8-1.1,3.8-1.4c0.5,0-0.3,0.6-0.2,0.7c0.2-0.2,1.9-0.7,2.1-0.7l-0.8,0.4
					c0.6-0.1,1-0.3,1.5-0.5c0.2-0.1,0.5-0.2,0.8-0.3c0.3-0.1,0.6-0.2,0.9-0.3c0.5-0.2,1.5-0.2,1.5-0.4c-0.4,0-0.8-0.2-1-0.5
					c0,0,0-0.1-0.1-0.1l0-0.1l-0.2-0.4c-0.2-0.6-0.4-1.2-0.6-1.7c-0.4-1-0.6-1.9-0.7-2.4c0.1,0.1,0.9,0.5,1.7,1
					c0.9,0.5,1.9,1,2.4,1.4c0.2,0.2,0.4,0.4,0.5,0.6c0,0,0,0.1,0,0.1c0,0.1-0.1,0.2-0.2,0.4c-0.2,0.3-0.4,0.6-0.1,0.5
					c0-0.1,0.3-0.4,0.5-0.5c0.5-0.2-0.1,0.3,0.9-0.2c0-0.3,2-1,0.3-0.5c0.9-0.6,1-0.6,2.1-1.2c-0.2,0-0.1-0.2,0.2-0.6
					c0.1-0.1,0.2-0.2,0.3-0.3l0.1-0.1c0,0,0-0.1,0-0.2l0-0.4c0-0.5,0-1,0.1-1.2c0.1,0.2,0.4,0.5,0.6,0.7c0.2,0.2,0.5,0.4,0.5,0.3
					c0.9-0.7,1.5-1.2,2.2-1.7c0.6-0.6,1.2-1.1,1.9-1.8c0.2-0.1,0.9-0.7,0.7-0.4c0.2-0.2,0.3-0.5,0.7-1c1-0.8-0.9,1.1-0.1,0.6
					c-0.1-0.2,0.9-1.4,1.4-2.2c-0.4,0.1-1.4,1.6-1.9,2.3c-0.1-0.1-0.1-0.2,0-0.4c0,0,0-0.1,0.1-0.2l0-0.1c0-0.1-0.1-0.1-0.1-0.2
					c-0.2-0.3-0.3-0.6-0.4-0.9c-0.5-1.3-0.6-2.5-0.5-3.6c0.4-1.6,1.7,0.4,1.6,0c1.1-1.1,0.5-2.2,0-3.1c-0.5-0.9-0.9-1.7,0.5-2.2
					c1.9-0.1,2.7,1.3,3.8,1.7c-0.2,1.5-1.9,1.3-2.3,2.1l1.2-0.6c0.2,0.6,0.1,1.7-0.5,1.8c0.2,0,0.4,0,0.6-0.2
					c0.1-0.2,0.2-0.4,0.4-0.6c0.3-0.5,0.7-1.1,1-1.8c0.4-0.7,0.7-1.4,1-2.1c0.3-0.7,0.7-1.4,0.9-1.9c0-0.2,0.1-0.5,0.1-0.7
					c0,0,0-0.1,0-0.1c0,0,0-0.1-0.1-0.1c-0.1-0.1-0.3-0.1-0.4-0.1l-0.1,0.8c-1.3,0.2-1-1.9-1.9-1.2c-0.2-0.6-0.5-1.3-0.6-1.9
					c-0.1-0.6,0-1.2,0.5-1.8l1.6,0.2c-0.5-0.1-1.1,0.6-0.8,1.1c-0.2-0.4,0.4-0.7,0.9-1.1c0.5-0.4,0.8-0.9-0.1-1.5
					c0,0-0.3,0.2-0.7,0.3c-0.3,0.2-0.7,0.3-0.7,0.3c-0.2-0.6-0.7-1.2-0.9-1.8c-0.3-0.6-0.4-1.2,0-1.7c-1.6,0.2,0.1,0.3-1.8,0.7
					c1.1-0.1,1,0.6,0.7,1.2c-0.2,0.6-0.4,1.2,0.9,1c-1.1,0.1-1.5,0.4-1.8,0.7c-0.2,0.2-0.3,0.3-0.5,0.5c-0.3,0.1-0.6,0.3-1.2,0.4
					c0.5,0.1,1.1,0,0.5,0.7c0.1,0.1,0.3,0.2,0.4,0.3c0,0,0,0-0.1,0c0,0,0.1,0,0.1,0c0.1,0.1,0.1,0.1,0,0c0.3-0.1,0.7-0.2,1-0.2
					c1,0.8,0.4,2.2,0.7,2.9c-0.5,0.4-0.5-0.5-1.2-0.4l0.5,1.1c-1.2-0.4-2.6,0.4-2.6-1l-0.6,1c-0.9,0.3-1.8,0.8-1.6,1.5
					c-0.5,0.3,0.5,1.8-0.1,0.9c0,0,0,0.5-0.2,0.9c-0.1,0.5-0.2,0.9-0.2,0.9l-0.3-0.2c-0.6,0.6-0.7,1.6-1.2,2.5
					c-0.4,0.8-1.1,1.6-2.8,1.3c-0.2,0.6-0.3,1.4-1.3,1.6l-1-0.8c-0.3,0.7-2.5,0.1-1.9,1.3c-1.3-1.2-2.1-1.1-2.7-0.6
					c-0.6,0.5-1.2,1.2-1.9,1.2l0.7,1.6c-0.4,0.1-0.7,0.3-1,0.6c-0.3,0.3-0.6,0.7-1,1.2l0.6,1.5c-0.2,0.8-0.9,0.7-1.7,0.4
					c-0.8-0.3-1.6-0.6-2.3-0.5c0-0.6,0.4-0.5,0.7-0.2c-1.2-1.6-1.9-1-2.7-0.1c-0.4,0.5-0.8,0.9-1.2,1c-0.4,0.2-0.9,0.1-1.3-0.6
					c-0.4,0.6-0.7,0.4-0.9,0c0,0,0.1,0,0.1-0.1c0,0-0.1,0-0.2,0c-0.2-0.3-0.3-0.7-0.5-1c0.1,0.4,0.3,0.8,0.4,1
					c-0.3,0-0.8,0.2-1.2,0.5l-0.1-1.8c0,0-0.1,0-0.1,0c-0.4-0.7-0.4,0.8-0.3,2.2c-0.3,0.3-0.5,0.6-0.7,1c-0.1-1.5-0.4-1.2-0.7-1.1
					c-0.3,0.2-0.7,0.3-0.7-1.3c-0.3,0.7-0.9,0.9-1.6,1.3c-0.7,0.4-1.4,1-1.9,2.5c0.1-0.4,0-0.7,0.3-0.6c-0.5-0.5-0.9-1-1.7-0.3
					l0.4-2.3c0,0-0.5,0.7-1,1.4c-0.5,0.7-1.1,1.4-1.1,1.4c-0.3-1.6-0.3-2.6,1-4c-1.2,1-1.7,1.1-2.1,1.2c-0.4,0.1-0.8,0.3-2,1.3
					l0.7-1.4c-0.5-0.1-2.2,1.4-2,0.1c0-1.7-1.3-2.4-2.8-3.3c-0.7-0.5-1.5-1-2.2-1.7c-0.7-0.6-1.3-1.4-1.5-2.5
					c-1.1,2.1-1.1,1.5-1.1,0.6c0-0.8,0-1.8-1.1-0.3c0.5-1,0.5-1.8,1.5-2.3c-1,0-1.2-0.7-1.5-1.2c-0.3-0.5-0.7-0.8-2.2,0.1
					c0.5-1,1.3-1.1,1.6-1.7c-0.3,0.1-1,0.4-0.7-0.2c0.3-0.6,0.8-0.6,1.3-0.8c-1.4-0.9-3.8,1.6-5.9,4.1c0.3-1.8-0.2-1.9-2.1-0.7
					c0.4-1,0.8-2.2,1.9-1.8c-0.4-0.5-1.9-3.7-3.6-1.8c0.3-0.6-0.5-0.7-0.9-0.6c-1-1.1-0.9-1.3-2.1-2.1v0.6c-2.5,1.9-1.3-0.3-2.4-0.8
					l0.2-0.2c-0.4-3.5-1.6,0-1.7-3.6l-1.3,1.5c-3.1,2.9,0.1-3.4-2.1-3.3l-0.4,1.2c-1.6,0.4,2.3-5.7,2.1-6.6c0.1-0.4,0.6-0.2,1-0.2
					c0.2-3.3-2,1.6-3.6,0.9c0.8-1.2,2.7-2.2,2.1-3.2c0.4-1.2-5.4,1-4.6-2c-0.5,1-1,2-2.1,2c-1.1-0.5,0.5-5-2.5-3.4
					c0.1-0.3,0.2-0.5,0.4-0.7c-1.2,0-3.1-1-4.7-0.1c4-5.3-6.3-1.6-2-5.9l-2.3-1.7l0.5-0.4c-1-1.5-2.5-0.9-3.9-0.3
					c0-0.6,0.6-0.8,0.8-1c-1.1-2.6-1.6-2.6-5.1-1.9l1.1-1.6c-1.2,0.4-1-4.7-4.5-4.6c0.2-0.1,0.4-0.4,0.8-0.5c-0.9,0-1.5-0.6-2-1.3
					c-0.5-0.7-0.9-1.6-1.3-2.3c-0.8-1.5-1.9-2.3-4.3,0l-2.5,0.2c1.7,1.8-1.9,2-1.7,3.5c-1-0.3-1-3,0.2-2.6l0,0.4
					c2.3-2.5-1.9-2.7-0.7-4.5c-1.1-0.6-2.2-1.3-3.2-2.1c-1.1-0.7-2.1-1.5-3.1-2.2c-1.1-0.7-2.1-1.4-3.2-2c-1.1-0.6-2.3-1.2-3.5-1.6
					c0,0-0.1,0.6-0.1,1.2c-0.1,0.6-0.1,1.2-0.1,1.2s-0.4-0.2-0.8-0.3c-0.4-0.2-0.8-0.3-0.8-0.3c-0.3-0.6,0-1.9,1.2-1.4
					c-0.2-1.4-2.4,0.4-2.5,0.9c-1-0.8-0.7-1.3,0-1.7c0.6-0.4,1.4-0.6,1-0.8c0,0-0.3,0-0.5-0.1c-0.3,0-0.5,0-0.5,0l0.2,0.3
					c-1.1,0.7-1.4,1.6-2.8,1.2c-0.8-0.6-0.2-1.4-0.5-1.6c0-0.1-0.1-0.3-0.6-0.1l-2.3-0.4c0,0,0.2,0.4,0.3,0.9
					c0.2,0.4,0.3,0.9,0.3,0.9c-1.1,0.7-2-0.3-1.3,1.7c-0.1-0.4-0.3-0.7-0.6-1c-0.3-0.2-0.7-0.4-1.1-0.6c-0.8-0.3-1.8-0.4-2.8-0.3
					c-1,0.1-2,0.2-2.8,0.2c-0.8,0.1-1.4,0.2-1.6,0c-0.6,0.7-1.2,1-1.9,1.3c-0.7,0.3-1.4,0.4-2.2,0.6c0.5,0.2,1,1.7-0.3,1.9
					c-0.2-1.7-0.9-1.9-1.7-1.8c-0.9,0.1-1.9,0.3-2.8-0.5c0.8,0.5-0.3,1-0.9,1.5c-0.7,0.5-1.3,1-0.3,1.7c-1.1,0.2-0.4-1-1.4-1.4
					c-1,1.1-2.3,1.4-3.8,1.8c-1.5,0.4-3.2,1-4.7,2.1c0.1,0.3,0.8,0.4,0.5,1.3c0,0-0.6-0.1-1.2-0.2c-0.6-0.1-1.2-0.1-1.2-0.1
					c-0.5,0.6,0.5,1.9-1.1,1.8c0.3,0.1,0.7,0.2,0.4,0.6c-0.7,0.4-1.4,0.9-2.1,1.4c-0.6,0.6-1.2,1.1-1.8,1.8c-0.5,0.6-1,1.3-1.5,1.9
					l-1.4,2c-0.9,1.3-1.8,2.7-2.8,4c-0.9,1.3-2,2.5-2.9,3.7c0.6-0.6,0.4-0.1,0,0.5c0.3-0.3,0.2,0.2,0.4,0.2c0,0-0.4,0.5-0.9,1
					c-0.4,0.5-0.8,1-0.8,1c0,0.6-1.3,2.5-1.3,2.9l0.4-0.7c-0.2,0.6,0.1,0.3,0.6,0c0.4-0.3,0.8-0.8,0.9-0.6c0.5-1.1,2.2-2.4,3.1-4.2
					c0.3-0.3-0.2,0.4,0,0.2c0.2-0.5,0.6-1,1.3-1.8l-0.1,0.1c1-1.3,1.7-2.2,2.5-3c0.8-0.9,1.7-1.8,2.9-3.1l-0.3,0.1
					c0.5-0.6,0.7-0.6,1-0.9c0.2-0.4-0.1,0-0.5,0.4c-0.4,0.4-0.8,0.8-0.6,0.4c0.4-0.3,1.4-1.2,2.3-2.2c1-0.9,1.9-1.7,2.3-1.8
					c0.9-0.7-0.4,0.1,0.5-0.6l0.3-0.1c0,0,0.2-0.3,0.2-0.3c0.6-0.4,1-0.5,1.1-0.5c-0.2,0.1-0.4,0.3-0.6,0.4c0.9-0.5,2.3-1.5,2.7-1.6
					c0,0-1,0.5-1,0.5c2.7-1.7,6.5-2.8,9.4-4l-0.3,0c2.2-1,1.8-0.6,4.3-1.4l-0.1,0c0.5-0.3,1.1-0.4,1.8-0.6c-0.6,0.2,1.2-0.1,0.4,0.2
					c2.5-0.7,1.2-0.4,2.8-0.9l0.4,0.1c0.6-0.2,0.6-0.3,1.9-0.4c-1.1,0.1,0.8,0.2-0.3,0.4c1.4,0.1,2.4,0,3.2,0c0.8,0,1.5,0,2.1,0.3
					c1.3-0.3-2.3-0.4-1.6-0.4c-0.6-0.2,1.1-0.2,1.9-0.1c0.9,0.1,1.4,0.7,3.6,1.1c-0.2-0.1-0.2,0-0.4-0.1c0.8,0.3,1.6,0.3,2.5,0.7
					c0.6-0.1,1.2,0.4,1.5,0.1c0,0-0.5-0.2-1-0.3c-0.5-0.1-1-0.2-1-0.2c1.1,0.2,2.3,0.2,4,1c-0.2,0-0.7-0.1-1.1-0.2
					c0.5,0.3,1,0.3,1.5,0.6c-0.2,0.2-2.3-0.7-3.6-0.9c0.5,0.3,2.3,0.5,1.6,0.6c0.5-0.1,1,0.1,1.6,0.3c0.6,0.3,1.2,0.6,1.9,0.7
					l-0.2,0.1c0.2,0.1,0.7,0.2,1.1,0.3l-0.8-0.1c1.2,0.2,2,1.2,3.1,1.5c-2.2-1.1-0.4-0.4-1.2-1c2.8,1.1,1.3,1.2,4.3,2.7
					c-0.4-0.2-1.4-0.9-0.8-0.7c0.5,0.4,1.2,0.8,1.5,1.1c1.9,1.1-0.2-0.4,0.7,0c0.5,0.6,1,0.5,1.8,0.9l-0.1,0.2c2,1.5,0.8,0,2.6,1.4
					l-1-0.3l1,0.6l-0.3,0.1c1.2,0.6,1.5,0.9,2.4,1.7c-0.2-0.3,0.4-0.2,1.3,0.5c0.5,0.6-0.5-0.1,0.8,0.8c-0.4-0.1-0.8-0.2-1.2-0.8
					c-0.1,0-0.4-0.1-0.5-0.1c0.6,0.6,1.6,1.3,2.1,1.6c-0.2-0.1-0.4-0.3-0.5-0.4l2,1.2c0.2,0.3,0,0.2-0.3,0c0.4,0.3,0.7,0.4,1.2,0.8
					c-0.2,0-0.3,0.2-1.1-0.4l1.8,1.3c0.1,0.2,0.7,0.9,0.5,0.7c0.9,0.8,2.5,1.7,3.6,2.9c0.1,0,0.2,0.1,0.5,0.3c1.1,1.1,2,2.1,3.4,3.2
					l0.5,0.9c1.1,0.9-0.7-1.2,1.1,0.3c1.3,1.1,0.3,0.6,0.6,1.1c0.7,0.5,2,1.2,2.9,2.5C811.2,254.9,810.9,254.6,810.5,254.3z
					 M823.1,266.5c-0.3-0.2-0.9-0.6-0.9-0.9C822.6,265.8,822.7,266.1,823.1,266.5z M843.1,284.3c-0.2-0.1-0.5-0.4-0.8-0.7
					C842.5,283.7,842.8,284,843.1,284.3z M900.7,274.4C900.7,274.4,900.7,274.5,900.7,274.4C899.9,274.7,900.2,274.7,900.7,274.4z
					 M901.9,273.5c-0.1-0.2-0.3-0.3-0.5-0.3c0.3,0.2,0.1,0.5-0.1,0.8C901.7,274.1,902,274,901.9,273.5z M772.1,221.3l0.3,0.4
					C771.5,222,771.8,221.7,772.1,221.3z"/>
				<path fill="#EC008C" d="M840.5,282.6c-0.1-0.1,0-0.1,0-0.2C840.4,282.3,840.4,282.3,840.5,282.6z"/>
				<path fill="#EC008C" d="M802.5,247L802.5,247c-0.1,0-0.1,0-0.1,0L802.5,247z"/>
				<path fill="#EC008C" d="M891.2,294.2c-0.3,0.1-0.5,0.2-0.6,0.2C890.6,294.4,890.8,294.4,891.2,294.2z"/>
				<path fill="#EC008C" d="M902.8,266.5l0,0.9c0.1-0.4,0.4-0.5,0.7-0.6C903.2,266.6,902.8,266.7,902.8,266.5z"/>
				<path fill="#EC008C" d="M911.2,259.5c0-0.1,0-0.3-0.1-0.5l-0.5,0c0,0.3,0.1,0.6,0.2,0.7C911,259.9,911.3,259.9,911.2,259.5z"/>
				<path fill="#EC008C" d="M907,266.6c1,0.1,0.8-0.5,0.8-1.2c0,0,0,0.1,0,0.1C906.4,265.1,906.8,265.8,907,266.6z"/>
				<path fill="#EC008C" d="M907.8,265.2c0-0.2,0-0.4,0.1-0.6C907.4,264.5,907.7,264.9,907.8,265.2z"/>
				<path fill="#EC008C" d="M902.1,271.7c0.4-0.1-1.2-0.7-0.7-0.6c-0.6-0.4-0.4,0.2-0.1,0.6C901.6,272.2,902,272.6,902.1,271.7z"/>
				<path fill="#EC008C" d="M910.4,266.7l-1.3,0l0.9,0.6C910,267.3,910.4,266.7,910.4,266.7z"/>
				<path fill="#EC008C" d="M908,271.8l0.7-0.9c-0.2-0.1-0.3-0.2-0.3-0.4C908.1,271.1,907.6,271.7,908,271.8z"/>
				<path fill="#EC008C" d="M908.4,270.4c0.2-0.3,0.2-0.7,0.1-0.9C908.4,269.7,908.3,270.1,908.4,270.4z"/>
				<polygon fill="#EC008C" points="910.1,268.2 910,268.6 909.8,269.3 				"/>
				<path fill="#EC008C" d="M902.2,282c0,0-0.1,0.3-0.2,0.6c-0.1,0.3-0.2,0.6-0.2,0.6c0.3,0.4,0.8,0.4,0.9-0.1
					C902.6,282.6,902.7,282.1,902.2,282z"/>
				<path fill="#EC008C" d="M905.6,279.9c-0.2,0.3-0.2,0.3-0.4,0.4l0.2,0.2L905.6,279.9z"/>
				<path fill="#EC008C" d="M903.7,282.9c0,0.2-0.9,1.6,0,0.3C903.7,283.1,904.4,282,903.7,282.9z"/>
				<path fill="#EC008C" d="M889.2,294.4l0.3-0.1c0-0.1,0.1,0.2-0.4-0.9c-0.4-0.8-0.7-1.6-0.7-1.6s0.3,0.8,0.6,1.7
					C889.4,294.6,889.2,294.3,889.2,294.4z"/>
				<path fill="#EC008C" d="M873.2,298.2c1.5,0.2,0.4-0.3,1.7,0c0.4-0.1-1.1-0.2-0.7-0.2C873.2,298,872.8,297.9,873.2,298.2z"/>
				<path fill="#EC008C" d="M874.1,297.9c0.1,0,0.3,0,0.5,0C874.3,297.9,874.2,297.9,874.1,297.9z"/>
				<path fill="#EC008C" d="M722.6,251.4c0,0-0.1,0.2-0.2,0.4c-0.1,0.2-0.2,0.4-0.2,0.4l0.4-0.5L722.6,251.4z"/>
				<path fill="#EC008C" d="M722,253.2l-0.3,0.1c0,0,0,0.1-0.1,0.3c0,0.1-0.1,0.3-0.1,0.3C721.7,253.7,721.9,253.3,722,253.2z"/>
				<path fill="#EC008C" d="M824.5,268.8L824.5,268.8c0-0.2-0.1-0.3-0.4-0.6L824.5,268.8z"/>
				<polygon fill="#EC008C" points="815.7,259.7 815.8,259.8 815.7,259.3 				"/>
				<path fill="#EC008C" d="M807.8,252.5c0.3,0.3,0.7,0.6,1,0.9C808.1,252.8,808,252.1,807.8,252.5z"/>
			</g>
		</g>
	</g>
</g>
<g>
	<line fill="#FFFFFF" x1="537.7" y1="27.8" x2="551.5" y2="188.2"/>
	<polygon points="539.2,27.7 551.5,188.2 536.1,28 	"/>
</g>
<g>
	<path d="M556.8,214.3c0,0,0.4-0.7,1.2-1.7c0.8-1.1,2.2-2.5,4-4c0.9-0.7,2-1.5,3.1-2.2c1.2-0.7,2.4-1.4,3.8-1.9
		c1.4-0.5,2.8-1.1,4.4-1.4c1.5-0.4,3.1-0.6,4.7-0.7c0.8,0,1.6-0.1,2.4-0.1c0.8,0,1.6,0,2.4,0.1c1.6,0.1,3.1,0.4,4.5,0.7
		c0.7,0.2,1.4,0.3,2.1,0.5c0.7,0.2,1.3,0.4,2,0.6c1.3,0.5,2.5,0.9,3.5,1.4c0.5,0.2,1,0.5,1.5,0.7c0.5,0.2,0.9,0.5,1.3,0.7
		c0.8,0.4,1.5,0.9,2.1,1.3c1.1,0.7,1.8,1.2,1.8,1.2s-0.7-0.2-2-0.7c-0.6-0.2-1.4-0.5-2.3-0.8c-0.9-0.3-1.9-0.6-3-0.9
		c-0.5-0.2-1.1-0.3-1.7-0.4c-0.6-0.1-1.2-0.3-1.8-0.4c-0.6-0.1-1.3-0.3-1.9-0.4c-0.7-0.1-1.3-0.2-2-0.3c-1.4-0.2-2.8-0.3-4.3-0.4
		c-0.7,0-1.5,0-2.2,0c-0.7,0-1.5,0.1-2.2,0.1c-1.5,0.1-2.9,0.3-4.3,0.6c-1.4,0.3-2.8,0.6-4.1,1.1c-1.3,0.4-2.6,0.9-3.7,1.4
		c-1.1,0.6-2.2,1.1-3.2,1.6c-1.9,1.1-3.5,2.2-4.6,3C557.4,213.8,556.8,214.3,556.8,214.3z"/>
</g>
</svg>
